<?xml version="1.0" encoding="UTF-8"?>
<!DOCTYPE svg PUBLIC "-//W3C//DTD SVG 1.0//EN" "http://www.w3.org/TR/2001/REC-SVG-20010904/DTD/svg10.dtd">
<!-- Creator: Daniel Moszczowski -->
<svg xmlns="http://www.w3.org/2000/svg" xml:space="preserve" width="591px" height="118px" version="1.0" style="shape-rendering:geometricPrecision; text-rendering:geometricPrecision; image-rendering:optimizeQuality; fill-rule:evenodd; clip-rule:evenodd"
viewBox="0 0 591 118"
 xmlns:xlink="http://www.w3.org/1999/xlink">
 <defs>
  <style type="text/css">
   <![CDATA[
    .str0 {stroke:#10527A;stroke-width:2.364}
    .str1 {stroke:#10527A;stroke-width:1.182}
    .fil0 {fill:none}
    .fil1 {fill:#10527A}
   ]]>
  </style>
 </defs>
 <g id="Warstwa_x0020_1">
  <metadata id="CorelCorpID_0Corel-Layer"/>
  <path class="fil0 str0" d="M18 11l549 0c7,0 11,9 13,24l0 45 -6 0 -2 15 -37 0 0 -11 -76 0 -8 15 -312 0 -9 -15 -74 0 0 11 -36 0 -5 -15 -6 0 0 -45c-1,-16 2,-24 9,-24z"/>
  <circle class="fil0 str0" cx="124" cy="99" r="14"/>
  <path class="fil0 str0" d="M56 87c2,-1 4,-1 6,-1 7,0 13,6 13,13 0,8 -6,14 -13,14 -8,0 -14,-6 -14,-14 0,-1 0,-3 1,-4"/>
  <rect class="fil0 str0" x="76" y="88" width="33.4605" height="17.8024" rx="3" ry="3"/>
  <circle class="fil1 str0" cx="62" cy="99" r="4"/>
  <circle class="fil1 str0" cx="124" cy="99" r="4"/>
  <rect class="fil0 str0" x="62" y="97" width="14.2576" height="2.39226"/>
  <rect class="fil0 str0" x="110" y="97" width="14.2576" height="2.39226"/>
  <polyline class="fil0 str0" points="107,88 126,88 126,97 122,97 122,92 109,96 "/>
  <polyline class="fil0 str0" points="79,88 59,88 59,97 63,97 63,92 76,96 "/>
  <circle class="fil0 str0" cx="466" cy="99" r="14"/>
  <path class="fil0 str0" d="M534 87c-2,-1 -3,-1 -6,-1 -7,0 -13,6 -13,13 0,8 6,14 13,14 8,0 14,-6 14,-14 0,-1 0,-3 -1,-4"/>
  <rect class="fil0 str0" x="481" y="89" width="33.4605" height="17.8024" rx="3" ry="3"/>
  <circle class="fil1 str0" cx="528" cy="99" r="4"/>
  <circle class="fil1 str0" cx="466" cy="99" r="4"/>
  <rect class="fil0 str0" x="514" y="97" width="14.2576" height="2.39226"/>
  <rect class="fil0 str0" x="466" y="97" width="14.2576" height="2.39226"/>
  <polyline class="fil0 str0" points="483,89 464,89 464,97 468,97 468,93 481,96 "/>
  <polyline class="fil0 str0" points="512,89 531,89 531,97 527,97 527,93 514,96 "/>
  <rect class="fil0 str0" x="22" y="32" width="21.2637" height="56.3725" rx="3" ry="3"/>
  <rect class="fil0 str0" x="26" y="36" width="11.6217" height="20.9335" rx="2" ry="1"/>
  <rect class="fil0 str0" x="548" y="32" width="21.2637" height="56.3725" rx="3" ry="3"/>
  <rect class="fil0 str0" x="553" y="36" width="11.6217" height="20.9335" rx="2" ry="1"/>
  <polygon class="fil0 str0" points="6,84 7,88 18,90 20,95 7,94 6,96 3,94 3,86 "/>
  <polygon class="fil0 str0" points="586,84 585,88 574,90 572,95 585,94 586,96 589,94 589,86 "/>
  <rect class="fil0 str0" x="89" y="35" width="18.1746" height="22.6654" rx="3" ry="1"/>
  <rect class="fil0 str0" x="483" y="35" width="18.1746" height="22.6654" rx="3" ry="1"/>
  <rect class="fil0 str0" x="115" y="35" width="32.8244" height="22.6654" rx="5" ry="1"/>
  <rect class="fil0 str0" x="156" y="35" width="32.8244" height="22.6654" rx="5" ry="1"/>
  <rect class="fil0 str0" x="197" y="35" width="32.8244" height="22.6654" rx="5" ry="1"/>
  <rect class="fil0 str0" x="238" y="35" width="32.8244" height="22.6654" rx="5" ry="1"/>
  <rect class="fil0 str0" x="279" y="35" width="32.8244" height="22.6654" rx="5" ry="1"/>
  <rect class="fil0 str0" x="320" y="35" width="32.8244" height="22.6654" rx="5" ry="1"/>
  <rect class="fil0 str0" x="360" y="35" width="32.8244" height="22.6654" rx="5" ry="1"/>
  <rect class="fil0 str0" x="401" y="35" width="32.8244" height="22.6654" rx="5" ry="1"/>
  <rect class="fil0 str0" x="442" y="35" width="32.8244" height="22.6654" rx="5" ry="1"/>
  <line class="fil0 str1" x1="8" y1="25" x2="578" y2= "25" />
 </g>
</svg>
