<?xml version="1.0" encoding="utf-8"?>
<svg width="384px" height="512px" viewBox="0 0 384 512" version="1.1" xmlns:xlink="http://www.w3.org/1999/xlink" xmlns="http://www.w3.org/2000/svg">
  <defs>
    <path d="M384 0L384 0L384 512L0 512L0 0L384 0Z" id="path_1" />
    <clipPath id="clip_1">
      <use xlink:href="#path_1" clip-rule="evenodd" fill-rule="evenodd" />
    </clipPath>
  </defs>
  <g id="computer-mouse-left-click">
    <path d="M384 0L384 0L384 512L0 512L0 0L384 0Z" id="computer-mouse-left-click" fill="none" stroke="none" />
    <path d="M0 192L176 192L176 0L160 0C71.6 0 0 71.6 0 160L0 192L0 192Z" id="Shape-Path" fill="#800080" stroke="none" clip-path="url(#clip_1)" />
    <path d="M0 192L176 192L176 0L160 0C71.6 0 0 71.6 0 160L0 192L0 192Z" id="Shape-Path" fill="#800080" stroke="none" clip-path="url(#clip_1)" />
    <path d="M0 224L0 352C0 440.4 71.6 512 160 512L224 512C312.4 512 384 440.4 384 352L384 224L192 224L0 224L0 224Z" id="Shape-Path" fill="#10527A" stroke="none" clip-path="url(#clip_1)" />
    <path d="M0 224L0 352C0 440.4 71.6 512 160 512L224 512C312.4 512 384 440.4 384 352L384 224L192 224L0 224L0 224Z" id="Shape-Path" fill="#10527A" stroke="none" clip-path="url(#clip_1)" />
    <path d="M384 192L384 160C384 71.6 312.4 0 224 0L208 0L208 192L384 192L384 192Z" id="Shape-Path" fill="#10527A" stroke="none" clip-path="url(#clip_1)" />
    <path d="M384 192L384 160C384 71.6 312.4 0 224 0L208 0L208 192L384 192L384 192Z" id="Shape-Path" fill="#10527A" stroke="none" clip-path="url(#clip_1)" />
  </g>
</svg>