<?xml version="1.0" encoding="UTF-8"?>
<!DOCTYPE svg PUBLIC "-//W3C//DTD SVG 1.0//EN" "http://www.w3.org/TR/2001/REC-SVG-20010904/DTD/svg10.dtd">
<!-- Creator: Daniel Moszcowski -->
<svg xmlns="http://www.w3.org/2000/svg" xml:space="preserve" width="1063px" height="118px" version="1.0" style="shape-rendering:geometricPrecision; text-rendering:geometricPrecision; image-rendering:optimizeQuality; fill-rule:evenodd; clip-rule:evenodd"
viewBox="0 0 1063 118"
 xmlns:xlink="http://www.w3.org/1999/xlink">
 <defs>
  <style type="text/css">
   <![CDATA[
    .str0 {stroke:#10527A;stroke-width:2.36222}
    .fil0 {fill:none}
   ]]>
  </style>
 </defs>
 <g id="Warstwa_x0020_1">
  <metadata id="CorelCorpID_0Corel-Layer"/>
  <path class="fil0 str0" d="M127 6l389 -1c6,1 8,4 9,10l0 73 -51 1c-2,1 -3,4 -4,12l-241 0c-5,0 -8,-12 -13,-12l-135 0c-5,0 -8,9 -14,9l-48 3c-5,0 -6,-1 -5,-2 3,-7 6,-14 5,-22 6,-17 19,-29 30,-39 22,-19 48,-29 78,-32zm225 46l0 0 30 0 0 0 0 0 1 0 0 0 0 0 0 0 0 0 0 0 0 0 0 1 0 0 0 0 0 0 0 0 0 0 1 0 0 0 0 0 0 0 0 0 0 0 0 0 0 0 0 0 0 0 0 0 0 0 0 0 0 0 0 0 0 0 1 0 0 0 0 0 0 0 0 1 0 0 0 0 0 0 0 0 0 0 0 0 0 0 0 0 0 0 0 0 0 0 0 0 0 0 0 0 0 0 0 1 0 0 0 0 0 0 0 0 0 0 0 0 0 0 1 0 0 0 0 0 0 0 0 0 0 1 0 15 0 0 0 0 0 0 0 0 0 1 -1 0 0 0 0 0 0 0 0 0 0 0 0 0 0 0 0 0 0 0 0 0 0 0 0 1 0 0 0 0 0 0 0 0 0 0 0 0 0 0 0 0 0 0 0 0 0 0 0 0 0 0 0 0 0 0 -1 0 0 1 0 0 0 0 0 0 0 0 0 0 0 0 0 0 0 0 0 0 0 0 0 0 0 0 0 0 0 0 -1 0 0 0 0 0 0 0 0 0 0 0 0 0 0 0 0 0 0 0 0 0 0 0 0 0 -1 0 0 0 0 0 -30 0 0 0 0 0 0 0 -1 0 0 0 0 0 0 0 0 0 0 0 0 0 0 0 0 0 0 0 0 0 0 0 0 0 0 0 0 0 0 0 0 0 0 0 0 0 0 0 0 0 0 0 0 0 0 0 0 0 0 0 -1 0 0 0 0 0 0 0 0 0 0 0 0 0 0 0 0 0 0 0 0 0 0 0 0 0 0 0 0 0 0 0 0 0 0 0 0 0 0 0 0 0 0 0 0 0 0 0 0 0 0 0 0 0 0 0 0 0 0 0 0 -1 0 0 -1 0 0 0 0 0 0 0 0 0 0 0 0 0 0 0 0 0 0 0 0 0 0 0 0 0 0 0 0 0 0 0 0 0 0 0 0 0 0 0 0 0 0 0 0 0 0 0 0 0 0 0 0 0 0 0 0 0 0 0 0 0 0 0 0 -1 0 0 0 0 0 0 0 0 0 0 0 0 0 0 0 0 0 0 0 0 0 0 0 0 0 0 0 0 0 0 0 0 0 0 0 0 0 0 0 0 0 0 0 0 0 0 0 0 0 0 0 -1 0 0 0 0 0 0 -1 0 0 0 0 0 0 0 0 0 0 0 0 -15 0 0 0 -1 0 0 0 0 0 0 1 0 0 0 0 0 0 0 0 0 0 0 0 0 0 0 0 0 0 0 0 0 0 0 0 0 0 0 0 0 0 0 0 0 0 0 0 0 0 0 0 0 0 0 0 -1 0 0 0 0 0 0 0 0 0 0 0 0 0 0 0 0 0 0 0 0 0 0 0 0 0 0 0 0 0 0 0 0 0 0 0 0 0 0 0 0 0 0 0 0 0 0 0 0 0 0 0 0 0 0 0 0 0 0 0 0 0 0 0 -1 0 0 0 0 0 0 0 0 0 0 0 0 0 0 1 0 0 0 0 0 0 0 0 0 0 0 0 0 0 0 0 0 0 0 0 0 0 0 0 0 0 0 0 0 0 0 0 0 0 0 0 0 0 0 0 0 0 0 0 0 0 0 0 0 0 0 0 0 0 0 0 0 0 0 0 0 0 0 1 0 0 0 0 0 0 0 0 0 0 0 0 0 0 0 0 0 0 0 0 0 0 0 0 -1 0 0 0 0 0 0 0 0 0 0 0 0 0 0 0 0 0 0 0 0 0 0 0 0 0 0 1 0 0 0 0 0zm-108 -20l20 0 0 65 -20 0c-1,0 -1,-1 -1,-1l0 -63c0,-1 0,-1 1,-1zm20 0l1 0 19 0c1,0 1,0 1,1l0 63c0,0 0,1 -1,1l-20 0 0 -65zm239 11l8 0c1,0 2,1 2,2l0 19c0,0 -1,1 -2,1l-8 0c0,0 -1,-1 -1,-1l0 -19c0,-1 1,-2 1,-2zm-48 0l31 0c2,0 3,2 3,3l0 16c0,2 -1,3 -3,3l-31 0c-2,0 -3,-1 -3,-3l0 -16c0,-1 1,-3 3,-3zm-52 9l31 0c2,0 3,2 3,4l0 15c0,2 -1,3 -3,3l-31 0c-2,0 -3,-1 -3,-3l0 -15c0,-2 1,-4 3,-4zm-102 0l30 0c2,0 3,2 3,4l0 15c0,2 -1,3 -3,3l-30 0c-2,0 -4,-1 -4,-3l0 -15c0,-2 2,-4 4,-4zm-80 -15l8 0c1,0 1,1 1,2l0 19c0,0 0,1 -1,1l-8 0c-1,0 -2,-1 -2,-1l0 -19c0,-1 1,-2 2,-2zm-50 0l8 0c1,0 2,1 2,2l0 19c0,0 -1,1 -2,1l-8 0c-1,0 -1,-1 -1,-1l0 -19c0,-1 0,-2 1,-2zm-64 2l6 0c0,0 1,1 1,1l0 9c0,0 -1,1 -1,1l-6 0c0,0 -1,-1 -1,-1l0 -9c0,0 1,-1 1,-1zm-42 10c8,-6 17,-11 27,-14 0,-1 1,0 1,1l0 19c0,1 -1,1 -1,1l-24 2c0,0 -1,-1 -1,-2l-4 -6c0,0 1,-1 2,-1z"/>
  <path class="fil0 str0" d="M20 101l51 -4 -3 7 -47 5c-3,0 -3,0 -3,-2l2 -6z"/>
  <polygon class="fil0 str0" points="12,85 18,85 18,89 12,89 12,91 2,93 2,79 12,83 "/>
  <rect class="fil0 str0" x="248" y="37" width="11.0162" height="32.464" rx="1" ry="5"/>
  <rect class="fil0 str0" x="269" y="37" width="11.0162" height="32.464" rx="1" ry="5"/>
  <rect class="fil0 str0" x="525" y="23" width="12.9922" height="60.3134"/>
  <path class="fil0 str0" d="M20 101l51 -4 -3 7 -47 5c-3,0 -3,0 -3,-2l2 -6z"/>
  <g id="_1227043464544">
   <path class="fil0 str0" d="M115 109c0,0 0,0 0,1 0,3 -5,6 -10,6 -6,0 -10,-3 -10,-6 0,-1 0,-1 0,-2l20 1z"/>
   <path class="fil0 str0" d="M191 108c1,0 1,1 1,2 0,3 -5,6 -10,6 -6,0 -10,-3 -10,-6 0,-1 0,-1 0,-2l19 0z"/>
   <path class="fil0 str0" d="M123 89l32 0 46 5 0 8c0,8 -39,5 -59,7 -19,-2 -57,3 -57,-6l0 -10 38 -4z"/>
   <path class="fil0 str0" d="M115 109c0,0 0,0 0,1 0,3 -5,6 -10,6 -6,0 -10,-3 -10,-6 0,-1 0,-1 0,-2l20 1z"/>
   <path class="fil0 str0" d="M191 108c1,0 1,1 1,2 0,3 -5,6 -10,6 -6,0 -10,-3 -10,-6 0,-1 0,-1 0,-2l19 0z"/>
   <path class="fil0 str0" d="M123 89l32 0 46 5 0 8c0,8 -39,5 -59,7 -19,-2 -57,3 -57,-6l0 -10 38 -4z"/>
  </g>
  <polygon class="fil0 str0" points="12,85 18,85 18,89 12,89 12,91 2,93 2,79 12,83 "/>
  <rect class="fil0 str0" x="248" y="37" width="11.0162" height="32.464" rx="1" ry="5"/>
  <rect class="fil0 str0" x="269" y="37" width="11.0162" height="32.464" rx="1" ry="5"/>
  <path class="fil0 str0" d="M1042 101l-51 -4 4 7 46 5c3,0 3,0 3,-2l-2 -6z"/>
  <g id="_1227043460032">
   <path class="fil0 str0" d="M947 109c0,0 0,0 0,1 0,3 5,6 10,6 6,0 10,-3 10,-6 0,-1 0,-1 0,-2l-20 1z"/>
   <path class="fil0 str0" d="M871 108c0,0 -1,1 -1,2 0,3 5,6 10,6 6,0 10,-3 10,-6 0,-1 0,-1 0,-2l-19 0z"/>
   <path class="fil0 str0" d="M939 89l-32 0 -46 5 0 8c0,8 39,5 59,7 19,-2 57,3 57,-6l0 -10 -38 -4z"/>
  </g>
  <polygon class="fil0 str0" points="1050,85 1044,85 1044,89 1050,89 1050,91 1061,93 1060,79 1050,83 "/>
  <rect class="fil0 str0" x="803" y="37" width="11.0162" height="32.464" rx="1" ry="5"/>
  <rect class="fil0 str0" x="782" y="37" width="11.0162" height="32.464" rx="1" ry="5"/>
  <g id="_1227043446688">
   <path class="fil0 str0" d="M520 88l24 0c12,2 24,3 36,5 1,0 0,1 -1,1l-27 13 -42 0c-9,-4 -19,-8 -29,-13 -1,0 -3,-1 -3,-1l42 -5z"/>
   <path class="fil0 str0" d="M500 103c1,1 1,1 1,2 0,6 -5,11 -11,11 -5,0 -10,-5 -10,-11 0,-4 2,-7 5,-9l15 7z"/>
   <path class="fil0 str0" d="M576 96c3,1 6,5 6,9 0,6 -4,11 -10,11 -6,0 -11,-5 -11,-11 0,-1 1,-2 1,-3l14 -6z"/>
  </g>
  <path class="fil0 str0" d="M935 6l-389 -1c-6,1 -8,4 -8,10l0 73 50 1c2,1 4,4 5,12l240 0c5,0 8,-12 13,-12l135 0c6,0 8,9 14,9l48 3c5,0 7,-1 5,-2 -3,-7 -5,-14 -4,-22 -6,-17 -20,-29 -31,-39 -22,-19 -48,-29 -78,-32zm-224 46l0 0 -31 0 0 0 0 0 0 0 0 0 -1 0 0 0 0 0 0 0 0 0 0 1 0 0 0 0 0 0 0 0 0 0 0 0 0 0 0 0 -1 0 0 0 0 0 0 0 0 0 0 0 0 0 0 0 0 0 0 0 0 0 0 0 0 0 0 0 0 0 0 0 -1 0 0 1 0 0 0 0 0 0 0 0 0 0 0 0 0 0 0 0 0 0 0 0 0 0 0 0 0 0 0 0 0 0 0 1 0 0 0 0 0 0 0 0 0 0 0 0 0 0 0 0 0 0 0 0 0 0 0 0 0 1 0 15 0 0 0 0 0 0 0 0 0 1 0 0 0 0 0 0 0 0 0 0 0 0 0 0 0 0 0 0 0 0 0 0 0 0 0 1 0 0 0 0 0 0 0 0 0 0 0 0 0 0 0 0 0 0 0 0 0 0 0 0 1 0 0 0 0 0 0 0 0 1 0 0 0 0 0 0 0 0 0 0 0 0 0 0 0 0 0 0 0 0 0 0 1 0 0 0 0 0 0 0 0 0 0 0 0 0 0 0 0 0 0 0 0 0 0 0 0 0 0 0 1 0 0 0 0 0 0 0 0 0 31 0 0 0 0 0 0 0 0 0 0 0 0 0 0 0 0 0 0 0 0 0 0 0 0 0 0 0 0 0 0 0 0 0 0 0 0 0 0 0 0 0 0 0 0 0 0 0 1 0 0 0 0 0 0 0 0 0 0 0 0 0 0 0 0 0 0 0 0 0 0 0 0 0 0 0 0 0 0 0 0 0 0 0 0 0 0 0 0 0 0 0 0 0 0 0 0 0 0 0 0 0 0 0 0 0 0 0 1 0 0 0 0 0 0 0 0 0 0 0 0 -1 0 0 0 0 0 0 0 0 0 0 0 0 0 0 0 0 0 0 0 0 0 0 0 0 0 0 0 0 0 0 0 0 0 0 0 0 0 0 0 0 0 0 0 0 0 0 0 0 0 0 0 0 0 0 0 0 0 0 0 0 0 0 0 0 0 0 0 -1 0 0 0 0 0 0 0 0 0 0 1 0 0 0 0 0 0 0 0 0 0 0 0 0 0 0 0 0 0 0 0 0 0 0 0 0 0 0 0 0 0 0 0 0 0 0 0 0 0 0 0 -1 0 0 0 0 0 0 0 0 0 0 0 0 0 0 0 0 0 0 0 -15 0 0 0 -1 0 0 0 0 0 0 0 0 0 0 0 0 0 0 0 0 0 0 0 0 0 0 0 0 0 0 0 0 0 0 0 0 0 0 0 0 0 0 0 0 0 0 0 0 0 0 0 0 0 0 0 -1 0 0 -1 0 0 0 0 0 0 0 0 0 0 0 0 0 0 0 0 0 0 0 0 0 0 0 0 0 0 0 0 0 0 0 0 0 0 0 0 0 0 0 0 0 0 0 0 0 0 0 0 0 0 0 0 0 0 0 0 0 0 0 0 -1 0 0 0 0 0 0 0 0 0 0 0 0 0 0 0 0 0 0 0 0 0 0 0 0 0 0 0 0 0 0 -1 0 0 0 0 0 0 0 0 0 0 0 0 0 0 0 0 0 0 0 0 0 0 0 0 0 0 0 0 0 0 0 0 0 0 0 0 0 0 0 0 0 0 0 0 0 0 0 0 0 0 0 0 0 0 0 0 0 0 0 -1 0 0 0 0 0 0 0 0 0 0 0 0 -1 0 0 0 0 0 0 0 0 0 0 0 0 0 0 0 0 0 0 0 0 0 0 0 0 0 0 0 0 0 0 0 0zm107 -20l-20 0 0 65 20 0c1,0 1,-1 1,-1l0 -63c0,-1 0,-1 -1,-1zm-20 0l-1 0 -19 0c0,0 -1,0 -1,1l0 63c0,0 1,1 1,1l20 0 0 -65zm-239 11l-8 0c-1,0 -2,1 -2,2l0 19c0,0 1,1 2,1l8 0c1,0 1,-1 1,-1l0 -19c0,-1 0,-2 -1,-2zm48 0l-31 0c-2,0 -3,2 -3,3l0 16c0,2 1,3 3,3l31 0c2,0 3,-1 3,-3l0 -16c0,-1 -1,-3 -3,-3zm52 9l-31 0c-1,0 -3,2 -3,4l0 15c0,2 2,3 3,3l31 0c2,0 3,-1 3,-3l0 -15c0,-2 -1,-4 -3,-4zm103 0l-31 0c-2,0 -3,2 -3,4l0 15c0,2 1,3 3,3l31 0c1,0 3,-1 3,-3l0 -15c0,-2 -2,-4 -3,-4zm79 -15l-8 0c-1,0 -1,1 -1,2l0 19c0,0 0,1 1,1l8 0c1,0 2,-1 2,-1l0 -19c0,-1 -1,-2 -2,-2zm50 0l-8 0c-1,0 -1,1 -1,2l0 19c0,0 0,1 1,1l8 0c1,0 2,-1 2,-1l0 -19c0,-1 -1,-2 -2,-2zm64 2l-5 0c-1,0 -1,1 -1,1l0 9c0,0 0,1 1,1l5 0c0,0 1,-1 1,-1l0 -9c0,0 -1,-1 -1,-1zm42 10c-8,-6 -17,-11 -26,-14 -1,-1 -2,0 -2,1l0 19c0,1 1,1 2,1l23 2c1,0 1,-1 1,-2l4 -6c0,0 -1,-1 -2,-1z"/>
 </g>
</svg>
