<?xml version="1.0" encoding="UTF-8"?>
<!DOCTYPE svg PUBLIC "-//W3C//DTD SVG 1.0//EN" "http://www.w3.org/TR/2001/REC-SVG-20010904/DTD/svg10.dtd">
<!-- Creator: Daniel Moszczowski -->
<svg xmlns="http://www.w3.org/2000/svg" xml:space="preserve" width="537px" height="118px" version="1.0" style="shape-rendering:geometricPrecision; text-rendering:geometricPrecision; image-rendering:optimizeQuality; fill-rule:evenodd; clip-rule:evenodd"
viewBox="0 0 537 118"
 xmlns:xlink="http://www.w3.org/1999/xlink">
 <defs>
  <style type="text/css">
   <![CDATA[
    .str0 {stroke:#10527A;stroke-width:2.36044}
    .str1 {stroke:#10527A;stroke-width:1.18022}
    .fil0 {fill:none}
   ]]>
  </style>
 </defs>
 <g id="Warstwa_x0020_1">
  <metadata id="CorelCorpID_0Corel-Layer"/>
  <path class="fil0 str0" d="M84 7l356 0c55,-2 58,26 73,67l0 13 -45 0 -14 -4 -374 0 -20 4 -37 0 0 -14c7,-34 18,-65 61,-66z"/>
  <polygon class="fil0 str0" points="74,38 62,39 62,26 74,22 "/>
  <polygon class="fil0 str0" points="58,40 45,42 45,38 58,28 "/>
  <polygon class="fil0 str0" points="463,39 475,40 475,27 463,23 "/>
  <polygon class="fil0 str0" points="479,42 492,43 492,39 479,30 "/>
  <path class="fil0 str0" d="M106 100c0,0 0,0 0,0 0,8 -7,15 -15,15 -8,0 -15,-7 -15,-15 0,-3 0,-5 1,-7"/>
  <path class="fil0 str0" d="M187 94c0,2 1,4 1,6 0,8 -7,15 -15,15 -9,0 -16,-7 -16,-15 0,0 0,-1 0,-1"/>
  <polygon class="fil0 str0" points="187,83 187,102 173,100 150,99 91,100 77,103 77,84 "/>
  <circle class="fil0 str0" cx="91" cy="100" r="2"/>
  <circle class="fil0 str0" cx="173" cy="100" r="2"/>
  <path class="fil0 str0" d="M301 83l0 10c0,2 -6,8 -7,8l-54 0c-1,0 -10,-6 -10,-8l0 -10 71 0z"/>
  <path class="fil0 str0" d="M60 87l17 -3 -5 26 -42 -2 5 -8 -8 0c-3,3 -5,3 -10,2 -3,0 -4,-1 -5,-4l-7 -1 0 4 -3 -1 0 -14 3 -1 0 6 18 0 0 -4 37 0z"/>
  <polygon class="fil0 str0" points="15,78 23,73 23,91 15,91 "/>
  <path class="fil0 str0" d="M430 100c0,0 0,0 0,0 0,8 7,15 15,15 9,0 16,-7 16,-15 0,-2 -1,-5 -2,-7"/>
  <path class="fil0 str0" d="M350 95c-1,1 -1,3 -1,5 0,8 7,15 15,15 8,0 15,-7 15,-15 0,0 0,0 0,-1"/>
  <polygon class="fil0 str0" points="350,84 350,102 364,100 386,99 445,100 459,104 459,84 "/>
  <circle class="fil0 str0" cx="445" cy="100" r="2"/>
  <circle class="fil0 str0" cx="364" cy="100" r="2"/>
  <path class="fil0 str0" d="M476 87l-17 -3 6 27 41 -3 -4 -7 8 -1c2,3 4,3 10,3 2,-1 3,-2 4,-5l7 -1 0 4 4 -1 0 -14 -4 -1 0 6 -18 0 0 -4 -37 0z"/>
  <polygon class="fil0 str0" points="521,78 513,74 513,91 522,91 "/>
  <rect class="fil0 str0" x="189" y="24" width="22.0765" height="46.6426" rx="3" ry="3"/>
  <rect class="fil0 str1" x="256" y="25" width="157.695" height="26.8547"/>
  <rect class="fil0 str1" x="264" y="25" width="141.926" height="26.8547"/>
  <rect class="fil0 str1" x="271" y="25" width="126.156" height="26.8547"/>
  <rect class="fil0 str1" x="279" y="25" width="110.387" height="26.8547"/>
  <rect class="fil0 str1" x="287" y="25" width="94.617" height="26.8547"/>
  <rect class="fil0 str1" x="287" y="25" width="94.617" height="26.8547"/>
  <rect class="fil0 str1" x="303" y="25" width="63.078" height="26.8547"/>
  <rect class="fil0 str1" x="295" y="25" width="78.8481" height="26.8547"/>
  <rect class="fil0 str1" x="311" y="25" width="47.3091" height="26.8547"/>
  <rect class="fil0 str1" x="319" y="25" width="31.539" height="26.8547"/>
  <rect class="fil0 str1" x="327" y="25" width="15.7701" height="26.8547"/>
  <rect class="fil0 str1" x="335" y="25" width="0.0157677" height="26.8547"/>
 </g>
</svg>
