<?xml version="1.0" encoding="utf-8"?>
<svg width="512px" height="512px" viewBox="0 0 512 512" version="1.1" xmlns:xlink="http://www.w3.org/1999/xlink" xmlns="http://www.w3.org/2000/svg">
  <defs>
    <path d="M512 0L512 0L512 512L0 512L0 0L512 0Z" id="path_1" />
    <clipPath id="clip_1">
      <use xlink:href="#path_1" clip-rule="evenodd" fill-rule="evenodd" />
    </clipPath>
  </defs>
  <g id="route-remove">
    <path d="M512 0L512 0L512 512L0 512L0 0L512 0Z" id="route-remove" fill="none" stroke="none" />
    <path d="M416 320L320 320C302.4 320 288 305.6 288 288C288 270.4 302.4 256 320 256L416 256C416 256 512 149 512 96C512 43 469 0 416 0C363 0 320 43 320 96C320 121.5 342.2 159.4 365.3 192L320 192C267.1 192 224 235.1 224 288C224 340.9 267.1 384 320 384L416 384C433.6 384 448 398.4 448 416C448 433.6 433.6 448 416 448L185.5 448C169.5 472.8 151.7 495.7 138.2 512L416 512C468.9 512 512 468.9 512 416C512 363.1 468.9 320 416 320L416 320L416 320L416 320ZM448 96C448 78.3 433.7 64 416 64C398.3 64 384 78.3 384 96C384 113.7 398.3 128 416 128C433.7 128 448 113.7 448 96L448 96L448 96L448 96ZM96 256C43 256 0 299 0 352C0 405 96 512 96 512C96 512 192 405 192 352C192 299 149 256 96 256L96 256L96 256L96 256ZM64 352C64 369.7 78.3 384 96 384C113.7 384 128 369.7 128 352C128 334.3 113.7 320 96 320C78.3 320 64 334.3 64 352L64 352L64 352L64 352Z" id="Shape" fill="#ADD8E6" fill-rule="evenodd" stroke="none" clip-path="url(#clip_1)" />
    <path d="M416 320L320 320C302.4 320 288 305.6 288 288C288 270.4 302.4 256 320 256L416 256C416 256 512 149 512 96C512 43 469 0 416 0C363 0 320 43 320 96C320 121.5 342.2 159.4 365.3 192L320 192C267.1 192 224 235.1 224 288C224 340.9 267.1 384 320 384L416 384C433.6 384 448 398.4 448 416C448 433.6 433.6 448 416 448L185.5 448C169.5 472.8 151.7 495.7 138.2 512L416 512C468.9 512 512 468.9 512 416C512 363.1 468.9 320 416 320L416 320L416 320L416 320ZM448 96C448 78.3 433.7 64 416 64C398.3 64 384 78.3 384 96C384 113.7 398.3 128 416 128C433.7 128 448 113.7 448 96L448 96L448 96L448 96ZM96 256C43 256 0 299 0 352C0 405 96 512 96 512C96 512 192 405 192 352C192 299 149 256 96 256L96 256L96 256L96 256ZM64 352C64 369.7 78.3 384 96 384C113.7 384 128 369.7 128 352C128 334.3 113.7 320 96 320C78.3 320 64 334.3 64 352L64 352L64 352L64 352Z" id="Shape" fill="#ADD8E6" fill-rule="evenodd" stroke="none" clip-path="url(#clip_1)" />
    <path d="M158.498 178.052L42.9482 62.5016C33.2795 76.0119 27.625 92.5869 27.625 110.5C27.625 156.254 64.7461 193.375 110.5 193.375C128.413 193.375 144.988 187.72 158.498 178.052L158.498 178.052ZM178.052 158.498C187.72 144.988 193.375 128.413 193.375 110.5C193.375 64.7461 156.254 27.625 110.5 27.625C92.5869 27.625 76.0119 33.2795 62.5016 42.9482L178.052 158.498L178.052 158.498ZM0 110.5C6.58631e-06 49.4725 49.4725 0 110.5 0C171.527 0 221 49.4726 221 110.5C221 171.527 171.527 221 110.5 221C49.4725 221 0 171.527 0 110.5L0 110.5Z" id="Shape" fill="#ADD8E6" fill-rule="evenodd" stroke="none" clip-path="url(#clip_1)" />
    <path d="M158.498 178.052L42.9482 62.5016C33.2795 76.0119 27.625 92.5869 27.625 110.5C27.625 156.254 64.7461 193.375 110.5 193.375C128.413 193.375 144.988 187.72 158.498 178.052L158.498 178.052ZM178.052 158.498C187.72 144.988 193.375 128.413 193.375 110.5C193.375 64.7461 156.254 27.625 110.5 27.625C92.5869 27.625 76.0119 33.2795 62.5016 42.9482L178.052 158.498L178.052 158.498ZM0 110.5C6.58631e-06 49.4725 49.4725 0 110.5 0C171.527 0 221 49.4726 221 110.5C221 171.527 171.527 221 110.5 221C49.4725 221 0 171.527 0 110.5L0 110.5Z" id="Shape" fill="#ADD8E6" fill-rule="evenodd" stroke="none" clip-path="url(#clip_1)" />
  </g>
</svg>