<?xml version="1.0" encoding="utf-8"?>
<svg width="512px" height="512px" viewBox="0 0 512 512" version="1.1" xmlns:xlink="http://www.w3.org/1999/xlink" xmlns="http://www.w3.org/2000/svg">
  <defs>
    <path d="M512 0L512 0L512 512L0 512L0 0L512 0Z" id="path_1" />
    <path d="M512 0L512 0L512 512L0 512L0 0L512 0L512 0Z" id="path_2" />
    <path d="M0 0L512 0L512 512L0 512L0 0L0 0Z" id="path_3" />
    <clipPath id="clip_1">
      <use xlink:href="#path_1" clip-rule="evenodd" fill-rule="evenodd" />
    </clipPath>
    <clipPath id="clip_2">
      <use xlink:href="#path_2" clip-rule="evenodd" fill-rule="evenodd" />
    </clipPath>
    <clipPath id="clip_3">
      <use xlink:href="#path_3" clip-rule="evenodd" fill-rule="evenodd" />
    </clipPath>
  </defs>
  <g id="route-add">
    <path d="M512 0L512 0L512 512L0 512L0 0L512 0Z" id="route-add" fill="none" stroke="none" />
    <g id="route-add" clip-path="url(#clip_1)">
      <path d="M512 0L512 0L512 512L0 512L0 0L512 0L512 0Z" id="route-add#1" fill="none" stroke="none" />
      <g id="Mask-Group">
        <path d="M512 0L512 0L512 512L0 512L0 0L512 0L512 0Z" id="path_1" fill="none" fill-rule="evenodd" stroke="none" />
        <g clip-path="url(#clip_2)">
          <g id="Mask-Group">
            <path d="M0 0L512 0L512 512L0 512L0 0L0 0Z" id="artboard_1" fill="none" fill-rule="evenodd" stroke="none" />
            <g id="Mask-Group">
              <path d="M0 0L512 0L512 512L0 512L0 0L0 0Z" id="path_2" fill="none" fill-rule="evenodd" stroke="none" />
              <g clip-path="url(#clip_3)">
                <g id="Group">
                  <g id="route-add#2">
                    <path d="M0 0L512 0L512 512L0 512L0 0L0 0Z" id="artboard_1#1" fill="#FFFFFF" fill-opacity="0" fill-rule="evenodd" stroke="none" />
                    <path d="M416 320L320 320C302.4 320 288 305.6 288 288C288 270.4 302.4 256 320 256L416 256C416 256 512 149 512 96C512 43 469 0 416 0C363 0 320 43 320 96C320 121.5 342.2 159.4 365.3 192L320 192C267.1 192 224 235.1 224 288C224 340.9 267.1 384 320 384L416 384C433.6 384 448 398.4 448 416C448 433.6 433.6 448 416 448L185.5 448C169.5 472.8 151.7 495.7 138.2 512L416 512C468.9 512 512 468.9 512 416C512 363.1 468.9 320 416 320L416 320L416 320ZM448 96C448 78.3 433.7 64 416 64C398.3 64 384 78.3 384 96C384 113.7 398.3 128 416 128C433.7 128 448 113.7 448 96L448 96L448 96ZM96 256C43 256 0 299 0 352C0 405 96 512 96 512C96 512 192 405 192 352C192 299 149 256 96 256L96 256L96 256ZM64 352C64 369.7 78.3 384 96 384C113.7 384 128 369.7 128 352C128 334.3 113.7 320 96 320C78.3 320 64 334.3 64 352L64 352L64 352Z" id="Shape" fill="#ADD8E6" fill-rule="evenodd" stroke="none" />
                    <path d="M182.857 91.7857L128.214 91.7857L128.214 37.1429C128.214 30.4377 122.777 25 116.071 25L103.929 25C97.2234 25 91.7857 30.4377 91.7857 37.1429L91.7857 91.7857L37.1429 91.7857C30.4377 91.7857 25 97.2234 25 103.929L25 116.071C25 122.777 30.4377 128.214 37.1429 128.214L91.7857 128.214L91.7857 182.857C91.7857 189.562 97.2234 195 103.929 195L116.071 195C122.777 195 128.214 189.562 128.214 182.857L128.214 128.214L182.857 128.214C189.562 128.214 195 122.777 195 116.071L195 103.929C195 97.2234 189.562 91.7857 182.857 91.7857L182.857 91.7857L182.857 91.7857L182.857 91.7857Z" id="Shape#1" fill="#ADD8E6" stroke="none" />
                  </g>
                </g>
              </g>
            </g>
          </g>
        </g>
      </g>
      <g id="Mask-Group">
        <path d="M512 0L512 0L512 512L0 512L0 0L512 0L512 0Z" id="path_1" fill="none" fill-rule="evenodd" stroke="none" />
        <g clip-path="url(#clip_2)">
          <g id="Mask-Group#1">
            <path d="M0 0L512 0L512 512L0 512L0 0L0 0Z" id="artboard_1#2" fill="none" fill-rule="evenodd" stroke="none" />
            <g id="Mask-Group">
              <path d="M0 0L512 0L512 512L0 512L0 0L0 0Z" id="path_2" fill="none" fill-rule="evenodd" stroke="none" />
              <g clip-path="url(#clip_3)">
                <g id="Group">
                  <g id="route-add#3">
                    <path d="M0 0L512 0L512 512L0 512L0 0L0 0Z" id="artboard_1#3" fill="#FFFFFF" fill-opacity="0" fill-rule="evenodd" stroke="none" />
                    <path d="M416 320L320 320C302.4 320 288 305.6 288 288C288 270.4 302.4 256 320 256L416 256C416 256 512 149 512 96C512 43 469 0 416 0C363 0 320 43 320 96C320 121.5 342.2 159.4 365.3 192L320 192C267.1 192 224 235.1 224 288C224 340.9 267.1 384 320 384L416 384C433.6 384 448 398.4 448 416C448 433.6 433.6 448 416 448L185.5 448C169.5 472.8 151.7 495.7 138.2 512L416 512C468.9 512 512 468.9 512 416C512 363.1 468.9 320 416 320L416 320L416 320ZM448 96C448 78.3 433.7 64 416 64C398.3 64 384 78.3 384 96C384 113.7 398.3 128 416 128C433.7 128 448 113.7 448 96L448 96L448 96ZM96 256C43 256 0 299 0 352C0 405 96 512 96 512C96 512 192 405 192 352C192 299 149 256 96 256L96 256L96 256ZM64 352C64 369.7 78.3 384 96 384C113.7 384 128 369.7 128 352C128 334.3 113.7 320 96 320C78.3 320 64 334.3 64 352L64 352L64 352Z" id="Shape#2" fill="#ADD8E6" fill-rule="evenodd" stroke="none" />
                    <path d="M182.857 91.7857L128.214 91.7857L128.214 37.1429C128.214 30.4377 122.777 25 116.071 25L103.929 25C97.2234 25 91.7857 30.4377 91.7857 37.1429L91.7857 91.7857L37.1429 91.7857C30.4377 91.7857 25 97.2234 25 103.929L25 116.071C25 122.777 30.4377 128.214 37.1429 128.214L91.7857 128.214L91.7857 182.857C91.7857 189.562 97.2234 195 103.929 195L116.071 195C122.777 195 128.214 189.562 128.214 182.857L128.214 128.214L182.857 128.214C189.562 128.214 195 122.777 195 116.071L195 103.929C195 97.2234 189.562 91.7857 182.857 91.7857L182.857 91.7857L182.857 91.7857L182.857 91.7857Z" id="Shape#3" fill="#ADD8E6" stroke="none" />
                  </g>
                </g>
              </g>
            </g>
          </g>
        </g>
      </g>
    </g>
    <g id="route-add" clip-path="url(#clip_1)">
      <path d="M512 0L512 0L512 512L0 512L0 0L512 0L512 0Z" id="route-add#1" fill="none" stroke="none" />
      <g id="Mask-Group">
        <path d="M512 0L512 0L512 512L0 512L0 0L512 0L512 0Z" id="path_1" fill="none" fill-rule="evenodd" stroke="none" />
        <g clip-path="url(#clip_2)">
          <g id="Mask-Group">
            <path d="M0 0L512 0L512 512L0 512L0 0L0 0Z" id="artboard_1" fill="none" fill-rule="evenodd" stroke="none" />
            <g id="Mask-Group">
              <path d="M0 0L512 0L512 512L0 512L0 0L0 0Z" id="path_2" fill="none" fill-rule="evenodd" stroke="none" />
              <g clip-path="url(#clip_3)">
                <g id="Group">
                  <g id="route-add#2">
                    <path d="M0 0L512 0L512 512L0 512L0 0L0 0Z" id="artboard_1#1" fill="#FFFFFF" fill-opacity="0" fill-rule="evenodd" stroke="none" />
                    <path d="M416 320L320 320C302.4 320 288 305.6 288 288C288 270.4 302.4 256 320 256L416 256C416 256 512 149 512 96C512 43 469 0 416 0C363 0 320 43 320 96C320 121.5 342.2 159.4 365.3 192L320 192C267.1 192 224 235.1 224 288C224 340.9 267.1 384 320 384L416 384C433.6 384 448 398.4 448 416C448 433.6 433.6 448 416 448L185.5 448C169.5 472.8 151.7 495.7 138.2 512L416 512C468.9 512 512 468.9 512 416C512 363.1 468.9 320 416 320L416 320L416 320ZM448 96C448 78.3 433.7 64 416 64C398.3 64 384 78.3 384 96C384 113.7 398.3 128 416 128C433.7 128 448 113.7 448 96L448 96L448 96ZM96 256C43 256 0 299 0 352C0 405 96 512 96 512C96 512 192 405 192 352C192 299 149 256 96 256L96 256L96 256ZM64 352C64 369.7 78.3 384 96 384C113.7 384 128 369.7 128 352C128 334.3 113.7 320 96 320C78.3 320 64 334.3 64 352L64 352L64 352Z" id="Shape" fill="#ADD8E6" fill-rule="evenodd" stroke="none" />
                    <path d="M182.857 91.7857L128.214 91.7857L128.214 37.1429C128.214 30.4377 122.777 25 116.071 25L103.929 25C97.2234 25 91.7857 30.4377 91.7857 37.1429L91.7857 91.7857L37.1429 91.7857C30.4377 91.7857 25 97.2234 25 103.929L25 116.071C25 122.777 30.4377 128.214 37.1429 128.214L91.7857 128.214L91.7857 182.857C91.7857 189.562 97.2234 195 103.929 195L116.071 195C122.777 195 128.214 189.562 128.214 182.857L128.214 128.214L182.857 128.214C189.562 128.214 195 122.777 195 116.071L195 103.929C195 97.2234 189.562 91.7857 182.857 91.7857L182.857 91.7857L182.857 91.7857L182.857 91.7857Z" id="Shape#1" fill="#ADD8E6" stroke="none" />
                  </g>
                </g>
              </g>
            </g>
          </g>
        </g>
      </g>
      <g id="Mask-Group">
        <path d="M512 0L512 0L512 512L0 512L0 0L512 0L512 0Z" id="path_1" fill="none" fill-rule="evenodd" stroke="none" />
        <g clip-path="url(#clip_2)">
          <g id="Mask-Group#1">
            <path d="M0 0L512 0L512 512L0 512L0 0L0 0Z" id="artboard_1#2" fill="none" fill-rule="evenodd" stroke="none" />
            <g id="Mask-Group">
              <path d="M0 0L512 0L512 512L0 512L0 0L0 0Z" id="path_2" fill="none" fill-rule="evenodd" stroke="none" />
              <g clip-path="url(#clip_3)">
                <g id="Group">
                  <g id="route-add#3">
                    <path d="M0 0L512 0L512 512L0 512L0 0L0 0Z" id="artboard_1#3" fill="#FFFFFF" fill-opacity="0" fill-rule="evenodd" stroke="none" />
                    <path d="M416 320L320 320C302.4 320 288 305.6 288 288C288 270.4 302.4 256 320 256L416 256C416 256 512 149 512 96C512 43 469 0 416 0C363 0 320 43 320 96C320 121.5 342.2 159.4 365.3 192L320 192C267.1 192 224 235.1 224 288C224 340.9 267.1 384 320 384L416 384C433.6 384 448 398.4 448 416C448 433.6 433.6 448 416 448L185.5 448C169.5 472.8 151.7 495.7 138.2 512L416 512C468.9 512 512 468.9 512 416C512 363.1 468.9 320 416 320L416 320L416 320ZM448 96C448 78.3 433.7 64 416 64C398.3 64 384 78.3 384 96C384 113.7 398.3 128 416 128C433.7 128 448 113.7 448 96L448 96L448 96ZM96 256C43 256 0 299 0 352C0 405 96 512 96 512C96 512 192 405 192 352C192 299 149 256 96 256L96 256L96 256ZM64 352C64 369.7 78.3 384 96 384C113.7 384 128 369.7 128 352C128 334.3 113.7 320 96 320C78.3 320 64 334.3 64 352L64 352L64 352Z" id="Shape#2" fill="#ADD8E6" fill-rule="evenodd" stroke="none" />
                    <path d="M182.857 91.7857L128.214 91.7857L128.214 37.1429C128.214 30.4377 122.777 25 116.071 25L103.929 25C97.2234 25 91.7857 30.4377 91.7857 37.1429L91.7857 91.7857L37.1429 91.7857C30.4377 91.7857 25 97.2234 25 103.929L25 116.071C25 122.777 30.4377 128.214 37.1429 128.214L91.7857 128.214L91.7857 182.857C91.7857 189.562 97.2234 195 103.929 195L116.071 195C122.777 195 128.214 189.562 128.214 182.857L128.214 128.214L182.857 128.214C189.562 128.214 195 122.777 195 116.071L195 103.929C195 97.2234 189.562 91.7857 182.857 91.7857L182.857 91.7857L182.857 91.7857L182.857 91.7857Z" id="Shape#3" fill="#ADD8E6" stroke="none" />
                  </g>
                </g>
              </g>
            </g>
          </g>
        </g>
      </g>
    </g>
  </g>
</svg>