<?xml version="1.0" encoding="utf-8"?>
<svg width="512px" height="512px" viewBox="0 0 512 512" version="1.1" xmlns:xlink="http://www.w3.org/1999/xlink" xmlns="http://www.w3.org/2000/svg">
  <defs>
    <path d="M512 0L512 0L512 512L0 512L0 0L512 0Z" id="path_1" />
    <clipPath id="clip_1">
      <use xlink:href="#path_1" clip-rule="evenodd" fill-rule="evenodd" />
    </clipPath>
  </defs>
  <g id="single-track">
    <path d="M512 0L512 0L512 512L0 512L0 0L512 0Z" id="single-track" fill="#FFFFFF" fill-opacity="0" stroke="none" />
    <path d="M406.5 0C418.928 0 429 10.0719 429 22.5L429 489.5C429 501.928 418.928 512 406.5 512L406.5 512C394.072 512 384 501.928 384 489.5L384 22.5C384 10.0719 394.072 0 406.5 0Z" id="Rectangle-3" fill="#10527A" stroke="none" clip-path="url(#clip_1)" />
    <path d="M406.5 0C418.928 0 429 10.0719 429 22.5L429 489.5C429 501.928 418.928 512 406.5 512L406.5 512C394.072 512 384 501.928 384 489.5L384 22.5C384 10.0719 394.072 0 406.5 0Z" id="Rectangle-3" fill="#10527A" stroke="none" clip-path="url(#clip_1)" />
    <path d="M106.5 0C118.928 0 129 10.0719 129 22.5L129 489.5C129 501.928 118.928 512 106.5 512L106.5 512C94.0719 512 84 501.928 84 489.5L84 22.5C84 10.0719 94.0719 0 106.5 0Z" id="Rectangle-2" fill="#10527A" stroke="none" clip-path="url(#clip_1)" />
    <path d="M106.5 0C118.928 0 129 10.0719 129 22.5L129 489.5C129 501.928 118.928 512 106.5 512L106.5 512C94.0719 512 84 501.928 84 489.5L84 22.5C84 10.0719 94.0719 0 106.5 0Z" id="Rectangle-2" fill="#10527A" stroke="none" clip-path="url(#clip_1)" />
    <g id="Group-7" transform="translate(0 59)" clip-path="url(#clip_1)">
      <path d="M375 3.99805L375 39.0035Q375 39.1999 374.981 39.3953Q374.962 39.5908 374.923 39.7834Q374.885 39.9761 374.828 40.164Q374.771 40.352 374.696 40.5334Q374.621 40.7149 374.528 40.8881Q374.435 41.0613 374.326 41.2246Q374.217 41.388 374.092 41.5398Q373.968 41.6916 373.829 41.8305Q373.69 41.9694 373.538 42.094Q373.386 42.2186 373.223 42.3277Q373.06 42.4368 372.887 42.5294Q372.713 42.622 372.532 42.6972Q372.35 42.7723 372.162 42.8293Q371.975 42.8864 371.782 42.9247Q371.589 42.963 371.394 42.9823Q371.198 43.0015 371.002 43.0015L141.998 43.0015Q141.802 43.0015 141.606 42.9823Q141.411 42.963 141.218 42.9247Q141.025 42.8864 140.837 42.8293Q140.65 42.7723 140.468 42.6972Q140.287 42.622 140.113 42.5294Q139.94 42.4368 139.777 42.3277Q139.614 42.2186 139.462 42.094Q139.31 41.9694 139.171 41.8305Q139.032 41.6916 138.908 41.5398Q138.783 41.388 138.674 41.2246Q138.565 41.0613 138.472 40.8881Q138.379 40.7149 138.304 40.5334Q138.229 40.352 138.172 40.164Q138.115 39.9761 138.077 39.7834Q138.038 39.5908 138.019 39.3953Q138 39.1999 138 39.0035L138 3.99805Q138 3.80164 138.019 3.60617Q138.038 3.4107 138.077 3.21807Q138.115 3.02543 138.172 2.83748Q138.229 2.64952 138.304 2.46806Q138.379 2.2866 138.472 2.11338Q138.565 1.94016 138.674 1.77685Q138.783 1.61354 138.908 1.46171Q139.032 1.30988 139.171 1.171Q139.31 1.03212 139.462 0.907515Q139.614 0.782913 139.777 0.673792Q139.94 0.564672 140.113 0.472084Q140.287 0.379497 140.468 0.304333Q140.65 0.22917 140.837 0.172155Q141.025 0.115139 141.218 0.0768213Q141.411 0.0385034 141.606 0.0192517Q141.802 0 141.998 0L371.002 0Q371.198 0 371.394 0.0192517Q371.589 0.0385034 371.782 0.0768213Q371.975 0.115139 372.162 0.172155Q372.35 0.22917 372.532 0.304333Q372.713 0.379497 372.887 0.472084Q373.06 0.564672 373.223 0.673792Q373.386 0.782913 373.538 0.907515Q373.69 1.03212 373.829 1.171Q373.968 1.30988 374.092 1.46171Q374.217 1.61354 374.326 1.77685Q374.435 1.94016 374.528 2.11338Q374.62 2.2866 374.696 2.46806Q374.771 2.64952 374.828 2.83748Q374.885 3.02543 374.923 3.21807Q374.962 3.4107 374.981 3.60617Q375 3.80164 375 3.99805L375 3.99805Z" id="Rectangle-5" fill="#10527A" fill-rule="evenodd" stroke="none" />
      <path d="M512 21.5L512 21.5015Q512 22.0293 511.974 22.5565Q511.948 23.0836 511.896 23.6089Q511.845 24.1341 511.767 24.6562Q511.69 25.1783 511.587 25.6959Q511.484 26.2136 511.356 26.7256Q511.227 27.2376 511.074 27.7426Q510.921 28.2477 510.743 28.7446Q510.565 29.2416 510.363 29.7292Q510.161 30.2168 509.936 30.6939Q509.71 31.1711 509.461 31.6365Q509.212 32.102 508.941 32.5547Q508.67 33.0074 508.377 33.4463Q508.083 33.8851 507.769 34.309Q507.454 34.733 507.12 35.141Q506.785 35.5489 506.43 35.94Q506.076 36.3311 505.703 36.7043Q505.33 37.0775 504.939 37.432Q504.547 37.7864 504.139 38.1212Q503.731 38.4561 503.307 38.7705Q502.884 39.0849 502.445 39.3781Q502.006 39.6713 501.553 39.9427Q501.1 40.214 500.635 40.4628Q500.169 40.7116 499.692 40.9373Q499.215 41.1629 498.728 41.3649Q498.24 41.5669 497.743 41.7447Q497.246 41.9225 496.741 42.0757Q496.236 42.2289 495.724 42.3572Q495.212 42.4854 494.694 42.5884Q494.177 42.6914 493.655 42.7688Q493.133 42.8462 492.607 42.898Q492.082 42.9497 491.555 42.9756Q491.028 43.0015 490.5 43.0015L441.998 43.0015Q441.802 43.0015 441.606 42.9823Q441.411 42.963 441.218 42.9247Q441.025 42.8864 440.837 42.8293Q440.65 42.7723 440.468 42.6972Q440.287 42.622 440.113 42.5294Q439.94 42.4368 439.777 42.3277Q439.614 42.2186 439.462 42.094Q439.31 41.9694 439.171 41.8305Q439.032 41.6916 438.907 41.5398Q438.783 41.388 438.674 41.2246Q438.565 41.0613 438.472 40.8881Q438.379 40.7149 438.304 40.5334Q438.229 40.352 438.172 40.164Q438.115 39.9761 438.077 39.7834Q438.038 39.5908 438.019 39.3953Q438 39.1999 438 39.0035L438 3.99805Q438 3.80164 438.019 3.60617Q438.038 3.4107 438.077 3.21807Q438.115 3.02543 438.172 2.83748Q438.229 2.64952 438.304 2.46806Q438.379 2.2866 438.472 2.11338Q438.565 1.94016 438.674 1.77685Q438.783 1.61354 438.907 1.46171Q439.032 1.30988 439.171 1.171Q439.31 1.03212 439.462 0.907515Q439.614 0.782913 439.777 0.673792Q439.94 0.564672 440.113 0.472084Q440.287 0.379497 440.468 0.304333Q440.65 0.22917 440.837 0.172155Q441.025 0.115139 441.218 0.0768213Q441.411 0.0385034 441.606 0.0192517Q441.802 0 441.998 0L490.5 0Q491.028 0 491.555 0.0258977Q492.082 0.0517954 492.607 0.103528Q493.133 0.155261 493.655 0.232705Q494.177 0.310149 494.694 0.413116Q495.212 0.516084 495.724 0.644328Q496.236 0.772572 496.741 0.925783Q497.246 1.07899 497.743 1.2568Q498.24 1.43461 498.728 1.63659Q499.215 1.83857 499.692 2.06423Q500.169 2.28989 500.635 2.53869Q501.1 2.78749 501.553 3.05883Q502.006 3.33018 502.445 3.6234Q502.884 3.91663 503.307 4.23104Q503.731 4.54544 504.139 4.88027Q504.547 5.2151 504.939 5.56955Q505.33 5.924 505.703 6.2972Q506.076 6.67041 506.43 7.06148Q506.785 7.45255 507.12 7.86054Q507.455 8.26854 507.769 8.69246Q508.083 9.11639 508.377 9.55524Q508.67 9.99409 508.941 10.4468Q509.212 10.8995 509.461 11.365Q509.71 11.8304 509.936 12.3076Q510.161 12.7847 510.363 13.2723Q510.565 13.7599 510.743 14.2569Q510.921 14.7538 511.074 15.2589Q511.227 15.7639 511.356 16.2759Q511.484 16.7879 511.587 17.3056Q511.69 17.8232 511.767 18.3453Q511.845 18.8674 511.896 19.3926Q511.948 19.9179 511.974 20.445Q512 20.9722 512 21.5Z" id="Rectangle-4" fill="#10527A" fill-rule="evenodd" stroke="none" />
      <path d="M0 21.5015L0 21.5Q0 20.9722 0.0258977 20.445Q0.0517954 19.9179 0.103528 19.3926Q0.155261 18.8674 0.232705 18.3453Q0.310149 17.8232 0.413116 17.3056Q0.516084 16.7879 0.644328 16.2759Q0.772572 15.7639 0.925783 15.2589Q1.07899 14.7538 1.2568 14.2569Q1.43461 13.7599 1.63659 13.2723Q1.83857 12.7847 2.06423 12.3076Q2.28989 11.8304 2.53869 11.365Q2.78749 10.8995 3.05883 10.4468Q3.33018 9.99409 3.6234 9.55524Q3.91663 9.11639 4.23104 8.69246Q4.54544 8.26854 4.88027 7.86054Q5.2151 7.45255 5.56955 7.06148Q5.924 6.67041 6.2972 6.2972Q6.67041 5.924 7.06148 5.56955Q7.45255 5.2151 7.86054 4.88028Q8.26854 4.54544 8.69246 4.23104Q9.11639 3.91663 9.55524 3.6234Q9.99409 3.33018 10.4468 3.05883Q10.8995 2.78749 11.365 2.53869Q11.8304 2.28989 12.3076 2.06423Q12.7847 1.83857 13.2723 1.63659Q13.7599 1.43461 14.2569 1.2568Q14.7538 1.07899 15.2589 0.925783Q15.7639 0.772572 16.2759 0.644328Q16.7879 0.516084 17.3056 0.413116Q17.8232 0.310149 18.3453 0.232705Q18.8674 0.155261 19.3926 0.103528Q19.9179 0.0517954 20.445 0.0258977Q20.9722 0 21.5 0L70.002 0Q70.1984 0 70.3938 0.0192517Q70.5893 0.0385034 70.7819 0.0768213Q70.9746 0.115139 71.1625 0.172155Q71.3505 0.22917 71.5319 0.304333Q71.7134 0.379497 71.8866 0.472084Q72.0598 0.564672 72.2231 0.673792Q72.3865 0.782913 72.5383 0.907515Q72.6901 1.03212 72.829 1.171Q72.9679 1.30988 73.0925 1.46171Q73.2171 1.61354 73.3262 1.77685Q73.4353 1.94016 73.5279 2.11338Q73.6205 2.2866 73.6957 2.46806Q73.7708 2.64952 73.8278 2.83748Q73.8849 3.02543 73.9232 3.21807Q73.9615 3.4107 73.9808 3.60617Q74 3.80164 74 3.99805L74 39.0035Q74 39.1999 73.9808 39.3953Q73.9615 39.5908 73.9232 39.7834Q73.8849 39.9761 73.8278 40.164Q73.7708 40.352 73.6957 40.5334Q73.6205 40.7149 73.5279 40.8881Q73.4353 41.0613 73.3262 41.2246Q73.2171 41.388 73.0925 41.5398Q72.9679 41.6916 72.829 41.8305Q72.6901 41.9694 72.5383 42.094Q72.3865 42.2186 72.2231 42.3277Q72.0598 42.4368 71.8866 42.5294Q71.7134 42.622 71.5319 42.6972Q71.3505 42.7723 71.1625 42.8293Q70.9746 42.8864 70.7819 42.9247Q70.5893 42.963 70.3938 42.9823Q70.1984 43.0015 70.002 43.0015L21.5 43.0015Q20.9722 43.0015 20.445 42.9756Q19.9179 42.9497 19.3926 42.898Q18.8674 42.8462 18.3453 42.7688Q17.8232 42.6914 17.3056 42.5884Q16.7879 42.4854 16.2759 42.3572Q15.7639 42.2289 15.2589 42.0757Q14.7538 41.9225 14.2569 41.7447Q13.7599 41.5669 13.2723 41.3649Q12.7847 41.1629 12.3076 40.9373Q11.8304 40.7116 11.365 40.4628Q10.8995 40.214 10.4468 39.9427Q9.99409 39.6713 9.55524 39.3781Q9.11639 39.0849 8.69246 38.7705Q8.26854 38.4561 7.86054 38.1212Q7.45255 37.7864 7.06148 37.432Q6.67041 37.0775 6.2972 36.7043Q5.924 36.3311 5.56955 35.94Q5.2151 35.5489 4.88028 35.141Q4.54544 34.733 4.23104 34.309Q3.91663 33.8851 3.6234 33.4463Q3.33018 33.0074 3.05883 32.5547Q2.78749 32.102 2.53869 31.6365Q2.28989 31.1711 2.06423 30.6939Q1.83857 30.2168 1.63659 29.7292Q1.43461 29.2416 1.2568 28.7446Q1.07899 28.2477 0.925783 27.7426Q0.772572 27.2376 0.644328 26.7256Q0.516084 26.2136 0.413116 25.6959Q0.310149 25.1783 0.232705 24.6562Q0.155261 24.1341 0.103528 23.6089Q0.0517954 23.0836 0.0258977 22.5565Q0 22.0293 0 21.5015Z" id="Rectangle-6" fill="#10527A" fill-rule="evenodd" stroke="none" />
    </g>
    <g id="Group-7" transform="translate(0 59)" clip-path="url(#clip_1)">
      <path d="M375 3.99805L375 39.0035Q375 39.1999 374.981 39.3953Q374.962 39.5908 374.923 39.7834Q374.885 39.9761 374.828 40.164Q374.771 40.352 374.696 40.5334Q374.621 40.7149 374.528 40.8881Q374.435 41.0613 374.326 41.2246Q374.217 41.388 374.092 41.5398Q373.968 41.6916 373.829 41.8305Q373.69 41.9694 373.538 42.094Q373.386 42.2186 373.223 42.3277Q373.06 42.4368 372.887 42.5294Q372.713 42.622 372.532 42.6972Q372.35 42.7723 372.162 42.8293Q371.975 42.8864 371.782 42.9247Q371.589 42.963 371.394 42.9823Q371.198 43.0015 371.002 43.0015L141.998 43.0015Q141.802 43.0015 141.606 42.9823Q141.411 42.963 141.218 42.9247Q141.025 42.8864 140.837 42.8293Q140.65 42.7723 140.468 42.6972Q140.287 42.622 140.113 42.5294Q139.94 42.4368 139.777 42.3277Q139.614 42.2186 139.462 42.094Q139.31 41.9694 139.171 41.8305Q139.032 41.6916 138.908 41.5398Q138.783 41.388 138.674 41.2246Q138.565 41.0613 138.472 40.8881Q138.379 40.7149 138.304 40.5334Q138.229 40.352 138.172 40.164Q138.115 39.9761 138.077 39.7834Q138.038 39.5908 138.019 39.3953Q138 39.1999 138 39.0035L138 3.99805Q138 3.80164 138.019 3.60617Q138.038 3.4107 138.077 3.21807Q138.115 3.02543 138.172 2.83748Q138.229 2.64952 138.304 2.46806Q138.379 2.2866 138.472 2.11338Q138.565 1.94016 138.674 1.77685Q138.783 1.61354 138.908 1.46171Q139.032 1.30988 139.171 1.171Q139.31 1.03212 139.462 0.907515Q139.614 0.782913 139.777 0.673792Q139.94 0.564672 140.113 0.472084Q140.287 0.379497 140.468 0.304333Q140.65 0.22917 140.837 0.172155Q141.025 0.115139 141.218 0.0768213Q141.411 0.0385034 141.606 0.0192517Q141.802 0 141.998 0L371.002 0Q371.198 0 371.394 0.0192517Q371.589 0.0385034 371.782 0.0768213Q371.975 0.115139 372.162 0.172155Q372.35 0.22917 372.532 0.304333Q372.713 0.379497 372.887 0.472084Q373.06 0.564672 373.223 0.673792Q373.386 0.782913 373.538 0.907515Q373.69 1.03212 373.829 1.171Q373.968 1.30988 374.092 1.46171Q374.217 1.61354 374.326 1.77685Q374.435 1.94016 374.528 2.11338Q374.62 2.2866 374.696 2.46806Q374.771 2.64952 374.828 2.83748Q374.885 3.02543 374.923 3.21807Q374.962 3.4107 374.981 3.60617Q375 3.80164 375 3.99805L375 3.99805Z" id="Rectangle-5" fill="#10527A" fill-rule="evenodd" stroke="none" />
      <path d="M512 21.5L512 21.5015Q512 22.0293 511.974 22.5565Q511.948 23.0836 511.896 23.6089Q511.845 24.1341 511.767 24.6562Q511.69 25.1783 511.587 25.6959Q511.484 26.2136 511.356 26.7256Q511.227 27.2376 511.074 27.7426Q510.921 28.2477 510.743 28.7446Q510.565 29.2416 510.363 29.7292Q510.161 30.2168 509.936 30.6939Q509.71 31.1711 509.461 31.6365Q509.212 32.102 508.941 32.5547Q508.67 33.0074 508.377 33.4463Q508.083 33.8851 507.769 34.309Q507.454 34.733 507.12 35.141Q506.785 35.5489 506.43 35.94Q506.076 36.3311 505.703 36.7043Q505.33 37.0775 504.939 37.432Q504.547 37.7864 504.139 38.1212Q503.731 38.4561 503.307 38.7705Q502.884 39.0849 502.445 39.3781Q502.006 39.6713 501.553 39.9427Q501.1 40.214 500.635 40.4628Q500.169 40.7116 499.692 40.9373Q499.215 41.1629 498.728 41.3649Q498.24 41.5669 497.743 41.7447Q497.246 41.9225 496.741 42.0757Q496.236 42.2289 495.724 42.3572Q495.212 42.4854 494.694 42.5884Q494.177 42.6914 493.655 42.7688Q493.133 42.8462 492.607 42.898Q492.082 42.9497 491.555 42.9756Q491.028 43.0015 490.5 43.0015L441.998 43.0015Q441.802 43.0015 441.606 42.9823Q441.411 42.963 441.218 42.9247Q441.025 42.8864 440.837 42.8293Q440.65 42.7723 440.468 42.6972Q440.287 42.622 440.113 42.5294Q439.94 42.4368 439.777 42.3277Q439.614 42.2186 439.462 42.094Q439.31 41.9694 439.171 41.8305Q439.032 41.6916 438.907 41.5398Q438.783 41.388 438.674 41.2246Q438.565 41.0613 438.472 40.8881Q438.379 40.7149 438.304 40.5334Q438.229 40.352 438.172 40.164Q438.115 39.9761 438.077 39.7834Q438.038 39.5908 438.019 39.3953Q438 39.1999 438 39.0035L438 3.99805Q438 3.80164 438.019 3.60617Q438.038 3.4107 438.077 3.21807Q438.115 3.02543 438.172 2.83748Q438.229 2.64952 438.304 2.46806Q438.379 2.2866 438.472 2.11338Q438.565 1.94016 438.674 1.77685Q438.783 1.61354 438.907 1.46171Q439.032 1.30988 439.171 1.171Q439.31 1.03212 439.462 0.907515Q439.614 0.782913 439.777 0.673792Q439.94 0.564672 440.113 0.472084Q440.287 0.379497 440.468 0.304333Q440.65 0.22917 440.837 0.172155Q441.025 0.115139 441.218 0.0768213Q441.411 0.0385034 441.606 0.0192517Q441.802 0 441.998 0L490.5 0Q491.028 0 491.555 0.0258977Q492.082 0.0517954 492.607 0.103528Q493.133 0.155261 493.655 0.232705Q494.177 0.310149 494.694 0.413116Q495.212 0.516084 495.724 0.644328Q496.236 0.772572 496.741 0.925783Q497.246 1.07899 497.743 1.2568Q498.24 1.43461 498.728 1.63659Q499.215 1.83857 499.692 2.06423Q500.169 2.28989 500.635 2.53869Q501.1 2.78749 501.553 3.05883Q502.006 3.33018 502.445 3.6234Q502.884 3.91663 503.307 4.23104Q503.731 4.54544 504.139 4.88027Q504.547 5.2151 504.939 5.56955Q505.33 5.924 505.703 6.2972Q506.076 6.67041 506.43 7.06148Q506.785 7.45255 507.12 7.86054Q507.455 8.26854 507.769 8.69246Q508.083 9.11639 508.377 9.55524Q508.67 9.99409 508.941 10.4468Q509.212 10.8995 509.461 11.365Q509.71 11.8304 509.936 12.3076Q510.161 12.7847 510.363 13.2723Q510.565 13.7599 510.743 14.2569Q510.921 14.7538 511.074 15.2589Q511.227 15.7639 511.356 16.2759Q511.484 16.7879 511.587 17.3056Q511.69 17.8232 511.767 18.3453Q511.845 18.8674 511.896 19.3926Q511.948 19.9179 511.974 20.445Q512 20.9722 512 21.5Z" id="Rectangle-4" fill="#10527A" fill-rule="evenodd" stroke="none" />
      <path d="M0 21.5015L0 21.5Q0 20.9722 0.0258977 20.445Q0.0517954 19.9179 0.103528 19.3926Q0.155261 18.8674 0.232705 18.3453Q0.310149 17.8232 0.413116 17.3056Q0.516084 16.7879 0.644328 16.2759Q0.772572 15.7639 0.925783 15.2589Q1.07899 14.7538 1.2568 14.2569Q1.43461 13.7599 1.63659 13.2723Q1.83857 12.7847 2.06423 12.3076Q2.28989 11.8304 2.53869 11.365Q2.78749 10.8995 3.05883 10.4468Q3.33018 9.99409 3.6234 9.55524Q3.91663 9.11639 4.23104 8.69246Q4.54544 8.26854 4.88027 7.86054Q5.2151 7.45255 5.56955 7.06148Q5.924 6.67041 6.2972 6.2972Q6.67041 5.924 7.06148 5.56955Q7.45255 5.2151 7.86054 4.88028Q8.26854 4.54544 8.69246 4.23104Q9.11639 3.91663 9.55524 3.6234Q9.99409 3.33018 10.4468 3.05883Q10.8995 2.78749 11.365 2.53869Q11.8304 2.28989 12.3076 2.06423Q12.7847 1.83857 13.2723 1.63659Q13.7599 1.43461 14.2569 1.2568Q14.7538 1.07899 15.2589 0.925783Q15.7639 0.772572 16.2759 0.644328Q16.7879 0.516084 17.3056 0.413116Q17.8232 0.310149 18.3453 0.232705Q18.8674 0.155261 19.3926 0.103528Q19.9179 0.0517954 20.445 0.0258977Q20.9722 0 21.5 0L70.002 0Q70.1984 0 70.3938 0.0192517Q70.5893 0.0385034 70.7819 0.0768213Q70.9746 0.115139 71.1625 0.172155Q71.3505 0.22917 71.5319 0.304333Q71.7134 0.379497 71.8866 0.472084Q72.0598 0.564672 72.2231 0.673792Q72.3865 0.782913 72.5383 0.907515Q72.6901 1.03212 72.829 1.171Q72.9679 1.30988 73.0925 1.46171Q73.2171 1.61354 73.3262 1.77685Q73.4353 1.94016 73.5279 2.11338Q73.6205 2.2866 73.6957 2.46806Q73.7708 2.64952 73.8278 2.83748Q73.8849 3.02543 73.9232 3.21807Q73.9615 3.4107 73.9808 3.60617Q74 3.80164 74 3.99805L74 39.0035Q74 39.1999 73.9808 39.3953Q73.9615 39.5908 73.9232 39.7834Q73.8849 39.9761 73.8278 40.164Q73.7708 40.352 73.6957 40.5334Q73.6205 40.7149 73.5279 40.8881Q73.4353 41.0613 73.3262 41.2246Q73.2171 41.388 73.0925 41.5398Q72.9679 41.6916 72.829 41.8305Q72.6901 41.9694 72.5383 42.094Q72.3865 42.2186 72.2231 42.3277Q72.0598 42.4368 71.8866 42.5294Q71.7134 42.622 71.5319 42.6972Q71.3505 42.7723 71.1625 42.8293Q70.9746 42.8864 70.7819 42.9247Q70.5893 42.963 70.3938 42.9823Q70.1984 43.0015 70.002 43.0015L21.5 43.0015Q20.9722 43.0015 20.445 42.9756Q19.9179 42.9497 19.3926 42.898Q18.8674 42.8462 18.3453 42.7688Q17.8232 42.6914 17.3056 42.5884Q16.7879 42.4854 16.2759 42.3572Q15.7639 42.2289 15.2589 42.0757Q14.7538 41.9225 14.2569 41.7447Q13.7599 41.5669 13.2723 41.3649Q12.7847 41.1629 12.3076 40.9373Q11.8304 40.7116 11.365 40.4628Q10.8995 40.214 10.4468 39.9427Q9.99409 39.6713 9.55524 39.3781Q9.11639 39.0849 8.69246 38.7705Q8.26854 38.4561 7.86054 38.1212Q7.45255 37.7864 7.06148 37.432Q6.67041 37.0775 6.2972 36.7043Q5.924 36.3311 5.56955 35.94Q5.2151 35.5489 4.88028 35.141Q4.54544 34.733 4.23104 34.309Q3.91663 33.8851 3.6234 33.4463Q3.33018 33.0074 3.05883 32.5547Q2.78749 32.102 2.53869 31.6365Q2.28989 31.1711 2.06423 30.6939Q1.83857 30.2168 1.63659 29.7292Q1.43461 29.2416 1.2568 28.7446Q1.07899 28.2477 0.925783 27.7426Q0.772572 27.2376 0.644328 26.7256Q0.516084 26.2136 0.413116 25.6959Q0.310149 25.1783 0.232705 24.6562Q0.155261 24.1341 0.103528 23.6089Q0.0517954 23.0836 0.0258977 22.5565Q0 22.0293 0 21.5015Z" id="Rectangle-6" fill="#10527A" fill-rule="evenodd" stroke="none" />
    </g>
    <g id="Group-8" transform="translate(0 147)" clip-path="url(#clip_1)">
      <path d="M375 3.99805L375 39.0035Q375 39.1999 374.981 39.3953Q374.962 39.5908 374.923 39.7834Q374.885 39.9761 374.828 40.164Q374.771 40.352 374.696 40.5334Q374.621 40.7149 374.528 40.8881Q374.435 41.0613 374.326 41.2246Q374.217 41.388 374.092 41.5398Q373.968 41.6916 373.829 41.8305Q373.69 41.9694 373.538 42.094Q373.386 42.2186 373.223 42.3277Q373.06 42.4368 372.887 42.5294Q372.713 42.622 372.532 42.6972Q372.35 42.7723 372.162 42.8293Q371.975 42.8864 371.782 42.9247Q371.589 42.963 371.394 42.9823Q371.198 43.0015 371.002 43.0015L141.998 43.0015Q141.802 43.0015 141.606 42.9823Q141.411 42.963 141.218 42.9247Q141.025 42.8864 140.837 42.8293Q140.65 42.7723 140.468 42.6972Q140.287 42.622 140.113 42.5294Q139.94 42.4368 139.777 42.3277Q139.614 42.2186 139.462 42.094Q139.31 41.9694 139.171 41.8305Q139.032 41.6916 138.908 41.5398Q138.783 41.388 138.674 41.2246Q138.565 41.0613 138.472 40.8881Q138.379 40.7149 138.304 40.5334Q138.229 40.352 138.172 40.164Q138.115 39.9761 138.077 39.7834Q138.038 39.5908 138.019 39.3953Q138 39.1999 138 39.0035L138 3.99805Q138 3.80164 138.019 3.60617Q138.038 3.4107 138.077 3.21807Q138.115 3.02543 138.172 2.83748Q138.229 2.64952 138.304 2.46806Q138.379 2.2866 138.472 2.11338Q138.565 1.94016 138.674 1.77685Q138.783 1.61354 138.908 1.46171Q139.032 1.30988 139.171 1.171Q139.31 1.03212 139.462 0.907515Q139.614 0.782913 139.777 0.673792Q139.94 0.564672 140.113 0.472084Q140.287 0.379497 140.468 0.304333Q140.65 0.22917 140.837 0.172155Q141.025 0.115139 141.218 0.0768213Q141.411 0.0385034 141.606 0.0192517Q141.802 0 141.998 0L371.002 0Q371.198 0 371.394 0.0192517Q371.589 0.0385034 371.782 0.0768213Q371.975 0.115139 372.162 0.172155Q372.35 0.22917 372.532 0.304333Q372.713 0.379497 372.887 0.472084Q373.06 0.564672 373.223 0.673792Q373.386 0.782913 373.538 0.907515Q373.69 1.03212 373.829 1.171Q373.968 1.30988 374.092 1.46171Q374.217 1.61354 374.326 1.77685Q374.435 1.94016 374.528 2.11338Q374.62 2.2866 374.696 2.46806Q374.771 2.64952 374.828 2.83748Q374.885 3.02543 374.923 3.21807Q374.962 3.4107 374.981 3.60617Q375 3.80164 375 3.99805L375 3.99805Z" id="Rectangle-5" fill="#10527A" fill-rule="evenodd" stroke="none" />
      <path d="M512 21.5L512 21.5015Q512 22.0293 511.974 22.5565Q511.948 23.0836 511.896 23.6089Q511.845 24.1341 511.767 24.6562Q511.69 25.1783 511.587 25.6959Q511.484 26.2136 511.356 26.7256Q511.227 27.2376 511.074 27.7426Q510.921 28.2477 510.743 28.7446Q510.565 29.2416 510.363 29.7292Q510.161 30.2168 509.936 30.6939Q509.71 31.1711 509.461 31.6365Q509.212 32.102 508.941 32.5547Q508.67 33.0074 508.377 33.4463Q508.083 33.8851 507.769 34.309Q507.454 34.733 507.12 35.141Q506.785 35.5489 506.43 35.94Q506.076 36.3311 505.703 36.7043Q505.33 37.0775 504.939 37.432Q504.547 37.7864 504.139 38.1212Q503.731 38.4561 503.307 38.7705Q502.884 39.0849 502.445 39.3781Q502.006 39.6713 501.553 39.9427Q501.1 40.214 500.635 40.4628Q500.169 40.7116 499.692 40.9373Q499.215 41.1629 498.728 41.3649Q498.24 41.5669 497.743 41.7447Q497.246 41.9225 496.741 42.0757Q496.236 42.2289 495.724 42.3572Q495.212 42.4854 494.694 42.5884Q494.177 42.6914 493.655 42.7688Q493.133 42.8462 492.607 42.898Q492.082 42.9497 491.555 42.9756Q491.028 43.0015 490.5 43.0015L441.998 43.0015Q441.802 43.0015 441.606 42.9823Q441.411 42.963 441.218 42.9247Q441.025 42.8864 440.837 42.8293Q440.65 42.7723 440.468 42.6972Q440.287 42.622 440.113 42.5294Q439.94 42.4368 439.777 42.3277Q439.614 42.2186 439.462 42.094Q439.31 41.9694 439.171 41.8305Q439.032 41.6916 438.907 41.5398Q438.783 41.388 438.674 41.2246Q438.565 41.0613 438.472 40.8881Q438.379 40.7149 438.304 40.5334Q438.229 40.352 438.172 40.164Q438.115 39.9761 438.077 39.7834Q438.038 39.5908 438.019 39.3953Q438 39.1999 438 39.0035L438 3.99805Q438 3.80164 438.019 3.60617Q438.038 3.4107 438.077 3.21807Q438.115 3.02543 438.172 2.83748Q438.229 2.64952 438.304 2.46806Q438.379 2.2866 438.472 2.11338Q438.565 1.94016 438.674 1.77685Q438.783 1.61354 438.907 1.46171Q439.032 1.30988 439.171 1.171Q439.31 1.03212 439.462 0.907515Q439.614 0.782913 439.777 0.673792Q439.94 0.564672 440.113 0.472084Q440.287 0.379497 440.468 0.304333Q440.65 0.22917 440.837 0.172155Q441.025 0.115139 441.218 0.0768213Q441.411 0.0385034 441.606 0.0192517Q441.802 0 441.998 0L490.5 0Q491.028 0 491.555 0.0258977Q492.082 0.0517954 492.607 0.103528Q493.133 0.155261 493.655 0.232705Q494.177 0.310149 494.694 0.413116Q495.212 0.516084 495.724 0.644328Q496.236 0.772572 496.741 0.925783Q497.246 1.07899 497.743 1.2568Q498.24 1.43461 498.728 1.63659Q499.215 1.83857 499.692 2.06423Q500.169 2.28989 500.635 2.53869Q501.1 2.78749 501.553 3.05883Q502.006 3.33018 502.445 3.6234Q502.884 3.91663 503.307 4.23104Q503.731 4.54544 504.139 4.88027Q504.547 5.2151 504.939 5.56955Q505.33 5.924 505.703 6.2972Q506.076 6.67041 506.43 7.06148Q506.785 7.45255 507.12 7.86054Q507.455 8.26854 507.769 8.69246Q508.083 9.11639 508.377 9.55524Q508.67 9.99409 508.941 10.4468Q509.212 10.8995 509.461 11.365Q509.71 11.8304 509.936 12.3076Q510.161 12.7847 510.363 13.2723Q510.565 13.7599 510.743 14.2569Q510.921 14.7538 511.074 15.2589Q511.227 15.7639 511.356 16.2759Q511.484 16.7879 511.587 17.3056Q511.69 17.8232 511.767 18.3453Q511.845 18.8674 511.896 19.3926Q511.948 19.9179 511.974 20.445Q512 20.9722 512 21.5Z" id="Rectangle-4" fill="#10527A" fill-rule="evenodd" stroke="none" />
      <path d="M0 21.5015L0 21.5Q0 20.9722 0.0258977 20.445Q0.0517954 19.9179 0.103528 19.3926Q0.155261 18.8674 0.232705 18.3453Q0.310149 17.8232 0.413116 17.3056Q0.516084 16.7879 0.644328 16.2759Q0.772572 15.7639 0.925783 15.2589Q1.07899 14.7538 1.2568 14.2569Q1.43461 13.7599 1.63659 13.2723Q1.83857 12.7847 2.06423 12.3076Q2.28989 11.8304 2.53869 11.365Q2.78749 10.8995 3.05883 10.4468Q3.33018 9.99409 3.6234 9.55524Q3.91663 9.11639 4.23104 8.69246Q4.54544 8.26854 4.88027 7.86054Q5.2151 7.45255 5.56955 7.06148Q5.924 6.67041 6.2972 6.2972Q6.67041 5.924 7.06148 5.56955Q7.45255 5.2151 7.86054 4.88028Q8.26854 4.54544 8.69246 4.23104Q9.11639 3.91663 9.55524 3.6234Q9.99409 3.33018 10.4468 3.05883Q10.8995 2.78749 11.365 2.53869Q11.8304 2.28989 12.3076 2.06423Q12.7847 1.83857 13.2723 1.63659Q13.7599 1.43461 14.2569 1.2568Q14.7538 1.07899 15.2589 0.925783Q15.7639 0.772572 16.2759 0.644328Q16.7879 0.516084 17.3056 0.413116Q17.8232 0.310149 18.3453 0.232705Q18.8674 0.155261 19.3926 0.103528Q19.9179 0.0517954 20.445 0.0258977Q20.9722 0 21.5 0L70.002 0Q70.1984 0 70.3938 0.0192517Q70.5893 0.0385034 70.7819 0.0768213Q70.9746 0.115139 71.1625 0.172155Q71.3505 0.22917 71.5319 0.304333Q71.7134 0.379497 71.8866 0.472084Q72.0598 0.564672 72.2231 0.673792Q72.3865 0.782913 72.5383 0.907515Q72.6901 1.03212 72.829 1.171Q72.9679 1.30988 73.0925 1.46171Q73.2171 1.61354 73.3262 1.77685Q73.4353 1.94016 73.5279 2.11338Q73.6205 2.2866 73.6957 2.46806Q73.7708 2.64952 73.8278 2.83748Q73.8849 3.02543 73.9232 3.21807Q73.9615 3.4107 73.9808 3.60617Q74 3.80164 74 3.99805L74 39.0035Q74 39.1999 73.9808 39.3953Q73.9615 39.5908 73.9232 39.7834Q73.8849 39.9761 73.8278 40.164Q73.7708 40.352 73.6957 40.5334Q73.6205 40.7149 73.5279 40.8881Q73.4353 41.0613 73.3262 41.2246Q73.2171 41.388 73.0925 41.5398Q72.9679 41.6916 72.829 41.8305Q72.6901 41.9694 72.5383 42.094Q72.3865 42.2186 72.2231 42.3277Q72.0598 42.4368 71.8866 42.5294Q71.7134 42.622 71.5319 42.6972Q71.3505 42.7723 71.1625 42.8293Q70.9746 42.8864 70.7819 42.9247Q70.5893 42.963 70.3938 42.9823Q70.1984 43.0015 70.002 43.0015L21.5 43.0015Q20.9722 43.0015 20.445 42.9756Q19.9179 42.9497 19.3926 42.898Q18.8674 42.8462 18.3453 42.7688Q17.8232 42.6914 17.3056 42.5884Q16.7879 42.4854 16.2759 42.3572Q15.7639 42.2289 15.2589 42.0757Q14.7538 41.9225 14.2569 41.7447Q13.7599 41.5669 13.2723 41.3649Q12.7847 41.1629 12.3076 40.9373Q11.8304 40.7116 11.365 40.4628Q10.8995 40.214 10.4468 39.9427Q9.99409 39.6713 9.55524 39.3781Q9.11639 39.0849 8.69246 38.7705Q8.26854 38.4561 7.86054 38.1212Q7.45255 37.7864 7.06148 37.432Q6.67041 37.0775 6.2972 36.7043Q5.924 36.3311 5.56955 35.94Q5.2151 35.5489 4.88028 35.141Q4.54544 34.733 4.23104 34.309Q3.91663 33.8851 3.6234 33.4463Q3.33018 33.0074 3.05883 32.5547Q2.78749 32.102 2.53869 31.6365Q2.28989 31.1711 2.06423 30.6939Q1.83857 30.2168 1.63659 29.7292Q1.43461 29.2416 1.2568 28.7446Q1.07899 28.2477 0.925783 27.7426Q0.772572 27.2376 0.644328 26.7256Q0.516084 26.2136 0.413116 25.6959Q0.310149 25.1783 0.232705 24.6562Q0.155261 24.1341 0.103528 23.6089Q0.0517954 23.0836 0.0258977 22.5565Q0 22.0293 0 21.5015Z" id="Rectangle-6" fill="#10527A" fill-rule="evenodd" stroke="none" />
    </g>
    <g id="Group-8" transform="translate(0 147)" clip-path="url(#clip_1)">
      <path d="M375 3.99805L375 39.0035Q375 39.1999 374.981 39.3953Q374.962 39.5908 374.923 39.7834Q374.885 39.9761 374.828 40.164Q374.771 40.352 374.696 40.5334Q374.621 40.7149 374.528 40.8881Q374.435 41.0613 374.326 41.2246Q374.217 41.388 374.092 41.5398Q373.968 41.6916 373.829 41.8305Q373.69 41.9694 373.538 42.094Q373.386 42.2186 373.223 42.3277Q373.06 42.4368 372.887 42.5294Q372.713 42.622 372.532 42.6972Q372.35 42.7723 372.162 42.8293Q371.975 42.8864 371.782 42.9247Q371.589 42.963 371.394 42.9823Q371.198 43.0015 371.002 43.0015L141.998 43.0015Q141.802 43.0015 141.606 42.9823Q141.411 42.963 141.218 42.9247Q141.025 42.8864 140.837 42.8293Q140.65 42.7723 140.468 42.6972Q140.287 42.622 140.113 42.5294Q139.94 42.4368 139.777 42.3277Q139.614 42.2186 139.462 42.094Q139.31 41.9694 139.171 41.8305Q139.032 41.6916 138.908 41.5398Q138.783 41.388 138.674 41.2246Q138.565 41.0613 138.472 40.8881Q138.379 40.7149 138.304 40.5334Q138.229 40.352 138.172 40.164Q138.115 39.9761 138.077 39.7834Q138.038 39.5908 138.019 39.3953Q138 39.1999 138 39.0035L138 3.99805Q138 3.80164 138.019 3.60617Q138.038 3.4107 138.077 3.21807Q138.115 3.02543 138.172 2.83748Q138.229 2.64952 138.304 2.46806Q138.379 2.2866 138.472 2.11338Q138.565 1.94016 138.674 1.77685Q138.783 1.61354 138.908 1.46171Q139.032 1.30988 139.171 1.171Q139.31 1.03212 139.462 0.907515Q139.614 0.782913 139.777 0.673792Q139.94 0.564672 140.113 0.472084Q140.287 0.379497 140.468 0.304333Q140.65 0.22917 140.837 0.172155Q141.025 0.115139 141.218 0.0768213Q141.411 0.0385034 141.606 0.0192517Q141.802 0 141.998 0L371.002 0Q371.198 0 371.394 0.0192517Q371.589 0.0385034 371.782 0.0768213Q371.975 0.115139 372.162 0.172155Q372.35 0.22917 372.532 0.304333Q372.713 0.379497 372.887 0.472084Q373.06 0.564672 373.223 0.673792Q373.386 0.782913 373.538 0.907515Q373.69 1.03212 373.829 1.171Q373.968 1.30988 374.092 1.46171Q374.217 1.61354 374.326 1.77685Q374.435 1.94016 374.528 2.11338Q374.62 2.2866 374.696 2.46806Q374.771 2.64952 374.828 2.83748Q374.885 3.02543 374.923 3.21807Q374.962 3.4107 374.981 3.60617Q375 3.80164 375 3.99805L375 3.99805Z" id="Rectangle-5" fill="#10527A" fill-rule="evenodd" stroke="none" />
      <path d="M512 21.5L512 21.5015Q512 22.0293 511.974 22.5565Q511.948 23.0836 511.896 23.6089Q511.845 24.1341 511.767 24.6562Q511.69 25.1783 511.587 25.6959Q511.484 26.2136 511.356 26.7256Q511.227 27.2376 511.074 27.7426Q510.921 28.2477 510.743 28.7446Q510.565 29.2416 510.363 29.7292Q510.161 30.2168 509.936 30.6939Q509.71 31.1711 509.461 31.6365Q509.212 32.102 508.941 32.5547Q508.67 33.0074 508.377 33.4463Q508.083 33.8851 507.769 34.309Q507.454 34.733 507.12 35.141Q506.785 35.5489 506.43 35.94Q506.076 36.3311 505.703 36.7043Q505.33 37.0775 504.939 37.432Q504.547 37.7864 504.139 38.1212Q503.731 38.4561 503.307 38.7705Q502.884 39.0849 502.445 39.3781Q502.006 39.6713 501.553 39.9427Q501.1 40.214 500.635 40.4628Q500.169 40.7116 499.692 40.9373Q499.215 41.1629 498.728 41.3649Q498.24 41.5669 497.743 41.7447Q497.246 41.9225 496.741 42.0757Q496.236 42.2289 495.724 42.3572Q495.212 42.4854 494.694 42.5884Q494.177 42.6914 493.655 42.7688Q493.133 42.8462 492.607 42.898Q492.082 42.9497 491.555 42.9756Q491.028 43.0015 490.5 43.0015L441.998 43.0015Q441.802 43.0015 441.606 42.9823Q441.411 42.963 441.218 42.9247Q441.025 42.8864 440.837 42.8293Q440.65 42.7723 440.468 42.6972Q440.287 42.622 440.113 42.5294Q439.94 42.4368 439.777 42.3277Q439.614 42.2186 439.462 42.094Q439.31 41.9694 439.171 41.8305Q439.032 41.6916 438.907 41.5398Q438.783 41.388 438.674 41.2246Q438.565 41.0613 438.472 40.8881Q438.379 40.7149 438.304 40.5334Q438.229 40.352 438.172 40.164Q438.115 39.9761 438.077 39.7834Q438.038 39.5908 438.019 39.3953Q438 39.1999 438 39.0035L438 3.99805Q438 3.80164 438.019 3.60617Q438.038 3.4107 438.077 3.21807Q438.115 3.02543 438.172 2.83748Q438.229 2.64952 438.304 2.46806Q438.379 2.2866 438.472 2.11338Q438.565 1.94016 438.674 1.77685Q438.783 1.61354 438.907 1.46171Q439.032 1.30988 439.171 1.171Q439.31 1.03212 439.462 0.907515Q439.614 0.782913 439.777 0.673792Q439.94 0.564672 440.113 0.472084Q440.287 0.379497 440.468 0.304333Q440.65 0.22917 440.837 0.172155Q441.025 0.115139 441.218 0.0768213Q441.411 0.0385034 441.606 0.0192517Q441.802 0 441.998 0L490.5 0Q491.028 0 491.555 0.0258977Q492.082 0.0517954 492.607 0.103528Q493.133 0.155261 493.655 0.232705Q494.177 0.310149 494.694 0.413116Q495.212 0.516084 495.724 0.644328Q496.236 0.772572 496.741 0.925783Q497.246 1.07899 497.743 1.2568Q498.24 1.43461 498.728 1.63659Q499.215 1.83857 499.692 2.06423Q500.169 2.28989 500.635 2.53869Q501.1 2.78749 501.553 3.05883Q502.006 3.33018 502.445 3.6234Q502.884 3.91663 503.307 4.23104Q503.731 4.54544 504.139 4.88027Q504.547 5.2151 504.939 5.56955Q505.33 5.924 505.703 6.2972Q506.076 6.67041 506.43 7.06148Q506.785 7.45255 507.12 7.86054Q507.455 8.26854 507.769 8.69246Q508.083 9.11639 508.377 9.55524Q508.67 9.99409 508.941 10.4468Q509.212 10.8995 509.461 11.365Q509.71 11.8304 509.936 12.3076Q510.161 12.7847 510.363 13.2723Q510.565 13.7599 510.743 14.2569Q510.921 14.7538 511.074 15.2589Q511.227 15.7639 511.356 16.2759Q511.484 16.7879 511.587 17.3056Q511.69 17.8232 511.767 18.3453Q511.845 18.8674 511.896 19.3926Q511.948 19.9179 511.974 20.445Q512 20.9722 512 21.5Z" id="Rectangle-4" fill="#10527A" fill-rule="evenodd" stroke="none" />
      <path d="M0 21.5015L0 21.5Q0 20.9722 0.0258977 20.445Q0.0517954 19.9179 0.103528 19.3926Q0.155261 18.8674 0.232705 18.3453Q0.310149 17.8232 0.413116 17.3056Q0.516084 16.7879 0.644328 16.2759Q0.772572 15.7639 0.925783 15.2589Q1.07899 14.7538 1.2568 14.2569Q1.43461 13.7599 1.63659 13.2723Q1.83857 12.7847 2.06423 12.3076Q2.28989 11.8304 2.53869 11.365Q2.78749 10.8995 3.05883 10.4468Q3.33018 9.99409 3.6234 9.55524Q3.91663 9.11639 4.23104 8.69246Q4.54544 8.26854 4.88027 7.86054Q5.2151 7.45255 5.56955 7.06148Q5.924 6.67041 6.2972 6.2972Q6.67041 5.924 7.06148 5.56955Q7.45255 5.2151 7.86054 4.88028Q8.26854 4.54544 8.69246 4.23104Q9.11639 3.91663 9.55524 3.6234Q9.99409 3.33018 10.4468 3.05883Q10.8995 2.78749 11.365 2.53869Q11.8304 2.28989 12.3076 2.06423Q12.7847 1.83857 13.2723 1.63659Q13.7599 1.43461 14.2569 1.2568Q14.7538 1.07899 15.2589 0.925783Q15.7639 0.772572 16.2759 0.644328Q16.7879 0.516084 17.3056 0.413116Q17.8232 0.310149 18.3453 0.232705Q18.8674 0.155261 19.3926 0.103528Q19.9179 0.0517954 20.445 0.0258977Q20.9722 0 21.5 0L70.002 0Q70.1984 0 70.3938 0.0192517Q70.5893 0.0385034 70.7819 0.0768213Q70.9746 0.115139 71.1625 0.172155Q71.3505 0.22917 71.5319 0.304333Q71.7134 0.379497 71.8866 0.472084Q72.0598 0.564672 72.2231 0.673792Q72.3865 0.782913 72.5383 0.907515Q72.6901 1.03212 72.829 1.171Q72.9679 1.30988 73.0925 1.46171Q73.2171 1.61354 73.3262 1.77685Q73.4353 1.94016 73.5279 2.11338Q73.6205 2.2866 73.6957 2.46806Q73.7708 2.64952 73.8278 2.83748Q73.8849 3.02543 73.9232 3.21807Q73.9615 3.4107 73.9808 3.60617Q74 3.80164 74 3.99805L74 39.0035Q74 39.1999 73.9808 39.3953Q73.9615 39.5908 73.9232 39.7834Q73.8849 39.9761 73.8278 40.164Q73.7708 40.352 73.6957 40.5334Q73.6205 40.7149 73.5279 40.8881Q73.4353 41.0613 73.3262 41.2246Q73.2171 41.388 73.0925 41.5398Q72.9679 41.6916 72.829 41.8305Q72.6901 41.9694 72.5383 42.094Q72.3865 42.2186 72.2231 42.3277Q72.0598 42.4368 71.8866 42.5294Q71.7134 42.622 71.5319 42.6972Q71.3505 42.7723 71.1625 42.8293Q70.9746 42.8864 70.7819 42.9247Q70.5893 42.963 70.3938 42.9823Q70.1984 43.0015 70.002 43.0015L21.5 43.0015Q20.9722 43.0015 20.445 42.9756Q19.9179 42.9497 19.3926 42.898Q18.8674 42.8462 18.3453 42.7688Q17.8232 42.6914 17.3056 42.5884Q16.7879 42.4854 16.2759 42.3572Q15.7639 42.2289 15.2589 42.0757Q14.7538 41.9225 14.2569 41.7447Q13.7599 41.5669 13.2723 41.3649Q12.7847 41.1629 12.3076 40.9373Q11.8304 40.7116 11.365 40.4628Q10.8995 40.214 10.4468 39.9427Q9.99409 39.6713 9.55524 39.3781Q9.11639 39.0849 8.69246 38.7705Q8.26854 38.4561 7.86054 38.1212Q7.45255 37.7864 7.06148 37.432Q6.67041 37.0775 6.2972 36.7043Q5.924 36.3311 5.56955 35.94Q5.2151 35.5489 4.88028 35.141Q4.54544 34.733 4.23104 34.309Q3.91663 33.8851 3.6234 33.4463Q3.33018 33.0074 3.05883 32.5547Q2.78749 32.102 2.53869 31.6365Q2.28989 31.1711 2.06423 30.6939Q1.83857 30.2168 1.63659 29.7292Q1.43461 29.2416 1.2568 28.7446Q1.07899 28.2477 0.925783 27.7426Q0.772572 27.2376 0.644328 26.7256Q0.516084 26.2136 0.413116 25.6959Q0.310149 25.1783 0.232705 24.6562Q0.155261 24.1341 0.103528 23.6089Q0.0517954 23.0836 0.0258977 22.5565Q0 22.0293 0 21.5015Z" id="Rectangle-6" fill="#10527A" fill-rule="evenodd" stroke="none" />
    </g>
    <g id="Group-9" transform="translate(0 235)" clip-path="url(#clip_1)">
      <path d="M375 3.99805L375 39.0035Q375 39.1999 374.981 39.3953Q374.962 39.5908 374.923 39.7834Q374.885 39.9761 374.828 40.164Q374.771 40.352 374.696 40.5334Q374.621 40.7149 374.528 40.8881Q374.435 41.0613 374.326 41.2246Q374.217 41.388 374.092 41.5398Q373.968 41.6916 373.829 41.8305Q373.69 41.9694 373.538 42.094Q373.386 42.2186 373.223 42.3277Q373.06 42.4368 372.887 42.5294Q372.713 42.622 372.532 42.6972Q372.35 42.7723 372.162 42.8293Q371.975 42.8864 371.782 42.9247Q371.589 42.963 371.394 42.9823Q371.198 43.0015 371.002 43.0015L141.998 43.0015Q141.802 43.0015 141.606 42.9823Q141.411 42.963 141.218 42.9247Q141.025 42.8864 140.837 42.8293Q140.65 42.7723 140.468 42.6972Q140.287 42.622 140.113 42.5294Q139.94 42.4368 139.777 42.3277Q139.614 42.2186 139.462 42.094Q139.31 41.9694 139.171 41.8305Q139.032 41.6916 138.908 41.5398Q138.783 41.388 138.674 41.2246Q138.565 41.0613 138.472 40.8881Q138.379 40.7149 138.304 40.5334Q138.229 40.352 138.172 40.164Q138.115 39.9761 138.077 39.7834Q138.038 39.5908 138.019 39.3953Q138 39.1999 138 39.0035L138 3.99805Q138 3.80164 138.019 3.60617Q138.038 3.4107 138.077 3.21807Q138.115 3.02543 138.172 2.83748Q138.229 2.64952 138.304 2.46806Q138.379 2.2866 138.472 2.11338Q138.565 1.94016 138.674 1.77685Q138.783 1.61354 138.908 1.46171Q139.032 1.30988 139.171 1.171Q139.31 1.03212 139.462 0.907515Q139.614 0.782913 139.777 0.673792Q139.94 0.564672 140.113 0.472084Q140.287 0.379497 140.468 0.304333Q140.65 0.22917 140.837 0.172155Q141.025 0.115139 141.218 0.0768213Q141.411 0.0385034 141.606 0.0192517Q141.802 0 141.998 0L371.002 0Q371.198 0 371.394 0.0192517Q371.589 0.0385034 371.782 0.0768213Q371.975 0.115139 372.162 0.172155Q372.35 0.22917 372.532 0.304333Q372.713 0.379497 372.887 0.472084Q373.06 0.564672 373.223 0.673792Q373.386 0.782913 373.538 0.907515Q373.69 1.03212 373.829 1.171Q373.968 1.30988 374.092 1.46171Q374.217 1.61354 374.326 1.77685Q374.435 1.94016 374.528 2.11338Q374.62 2.2866 374.696 2.46806Q374.771 2.64952 374.828 2.83748Q374.885 3.02543 374.923 3.21807Q374.962 3.4107 374.981 3.60617Q375 3.80164 375 3.99805L375 3.99805Z" id="Rectangle-5" fill="#10527A" fill-rule="evenodd" stroke="none" />
      <path d="M512 21.5L512 21.5015Q512 22.0293 511.974 22.5565Q511.948 23.0836 511.896 23.6089Q511.845 24.1341 511.767 24.6562Q511.69 25.1783 511.587 25.6959Q511.484 26.2136 511.356 26.7256Q511.227 27.2376 511.074 27.7426Q510.921 28.2477 510.743 28.7446Q510.565 29.2416 510.363 29.7292Q510.161 30.2168 509.936 30.6939Q509.71 31.1711 509.461 31.6365Q509.212 32.102 508.941 32.5547Q508.67 33.0074 508.377 33.4463Q508.083 33.8851 507.769 34.309Q507.454 34.733 507.12 35.141Q506.785 35.5489 506.43 35.94Q506.076 36.3311 505.703 36.7043Q505.33 37.0775 504.939 37.432Q504.547 37.7864 504.139 38.1212Q503.731 38.4561 503.307 38.7705Q502.884 39.0849 502.445 39.3781Q502.006 39.6713 501.553 39.9427Q501.1 40.214 500.635 40.4628Q500.169 40.7116 499.692 40.9373Q499.215 41.1629 498.728 41.3649Q498.24 41.5669 497.743 41.7447Q497.246 41.9225 496.741 42.0757Q496.236 42.2289 495.724 42.3572Q495.212 42.4854 494.694 42.5884Q494.177 42.6914 493.655 42.7688Q493.133 42.8462 492.607 42.898Q492.082 42.9497 491.555 42.9756Q491.028 43.0015 490.5 43.0015L441.998 43.0015Q441.802 43.0015 441.606 42.9823Q441.411 42.963 441.218 42.9247Q441.025 42.8864 440.837 42.8293Q440.65 42.7723 440.468 42.6972Q440.287 42.622 440.113 42.5294Q439.94 42.4368 439.777 42.3277Q439.614 42.2186 439.462 42.094Q439.31 41.9694 439.171 41.8305Q439.032 41.6916 438.907 41.5398Q438.783 41.388 438.674 41.2246Q438.565 41.0613 438.472 40.8881Q438.379 40.7149 438.304 40.5334Q438.229 40.352 438.172 40.164Q438.115 39.9761 438.077 39.7834Q438.038 39.5908 438.019 39.3953Q438 39.1999 438 39.0035L438 3.99805Q438 3.80164 438.019 3.60617Q438.038 3.4107 438.077 3.21807Q438.115 3.02543 438.172 2.83748Q438.229 2.64952 438.304 2.46806Q438.379 2.2866 438.472 2.11338Q438.565 1.94016 438.674 1.77685Q438.783 1.61354 438.907 1.46171Q439.032 1.30988 439.171 1.171Q439.31 1.03212 439.462 0.907515Q439.614 0.782913 439.777 0.673792Q439.94 0.564672 440.113 0.472084Q440.287 0.379497 440.468 0.304333Q440.65 0.22917 440.837 0.172155Q441.025 0.115139 441.218 0.0768213Q441.411 0.0385034 441.606 0.0192517Q441.802 0 441.998 0L490.5 0Q491.028 0 491.555 0.0258977Q492.082 0.0517954 492.607 0.103528Q493.133 0.155261 493.655 0.232705Q494.177 0.310149 494.694 0.413116Q495.212 0.516084 495.724 0.644328Q496.236 0.772572 496.741 0.925783Q497.246 1.07899 497.743 1.2568Q498.24 1.43461 498.728 1.63659Q499.215 1.83857 499.692 2.06423Q500.169 2.28989 500.635 2.53869Q501.1 2.78749 501.553 3.05883Q502.006 3.33018 502.445 3.6234Q502.884 3.91663 503.307 4.23104Q503.731 4.54544 504.139 4.88027Q504.547 5.2151 504.939 5.56955Q505.33 5.924 505.703 6.2972Q506.076 6.67041 506.43 7.06148Q506.785 7.45255 507.12 7.86054Q507.455 8.26854 507.769 8.69246Q508.083 9.11639 508.377 9.55524Q508.67 9.99409 508.941 10.4468Q509.212 10.8995 509.461 11.365Q509.71 11.8304 509.936 12.3076Q510.161 12.7847 510.363 13.2723Q510.565 13.7599 510.743 14.2569Q510.921 14.7538 511.074 15.2589Q511.227 15.7639 511.356 16.2759Q511.484 16.7879 511.587 17.3056Q511.69 17.8232 511.767 18.3453Q511.845 18.8674 511.896 19.3926Q511.948 19.9179 511.974 20.445Q512 20.9722 512 21.5Z" id="Rectangle-4" fill="#10527A" fill-rule="evenodd" stroke="none" />
      <path d="M0 21.5015L0 21.5Q0 20.9722 0.0258977 20.445Q0.0517954 19.9179 0.103528 19.3926Q0.155261 18.8674 0.232705 18.3453Q0.310149 17.8232 0.413116 17.3056Q0.516084 16.7879 0.644328 16.2759Q0.772572 15.7639 0.925783 15.2589Q1.07899 14.7538 1.2568 14.2569Q1.43461 13.7599 1.63659 13.2723Q1.83857 12.7847 2.06423 12.3076Q2.28989 11.8304 2.53869 11.365Q2.78749 10.8995 3.05883 10.4468Q3.33018 9.99409 3.6234 9.55524Q3.91663 9.11639 4.23104 8.69246Q4.54544 8.26854 4.88027 7.86054Q5.2151 7.45255 5.56955 7.06148Q5.924 6.67041 6.2972 6.2972Q6.67041 5.924 7.06148 5.56955Q7.45255 5.2151 7.86054 4.88028Q8.26854 4.54544 8.69246 4.23104Q9.11639 3.91663 9.55524 3.6234Q9.99409 3.33018 10.4468 3.05883Q10.8995 2.78749 11.365 2.53869Q11.8304 2.28989 12.3076 2.06423Q12.7847 1.83857 13.2723 1.63659Q13.7599 1.43461 14.2569 1.2568Q14.7538 1.07899 15.2589 0.925783Q15.7639 0.772572 16.2759 0.644328Q16.7879 0.516084 17.3056 0.413116Q17.8232 0.310149 18.3453 0.232705Q18.8674 0.155261 19.3926 0.103528Q19.9179 0.0517954 20.445 0.0258977Q20.9722 0 21.5 0L70.002 0Q70.1984 0 70.3938 0.0192517Q70.5893 0.0385034 70.7819 0.0768213Q70.9746 0.115139 71.1625 0.172155Q71.3505 0.22917 71.5319 0.304333Q71.7134 0.379497 71.8866 0.472084Q72.0598 0.564672 72.2231 0.673792Q72.3865 0.782913 72.5383 0.907515Q72.6901 1.03212 72.829 1.171Q72.9679 1.30988 73.0925 1.46171Q73.2171 1.61354 73.3262 1.77685Q73.4353 1.94016 73.5279 2.11338Q73.6205 2.2866 73.6957 2.46806Q73.7708 2.64952 73.8278 2.83748Q73.8849 3.02543 73.9232 3.21807Q73.9615 3.4107 73.9808 3.60617Q74 3.80164 74 3.99805L74 39.0035Q74 39.1999 73.9808 39.3953Q73.9615 39.5908 73.9232 39.7834Q73.8849 39.9761 73.8278 40.164Q73.7708 40.352 73.6957 40.5334Q73.6205 40.7149 73.5279 40.8881Q73.4353 41.0613 73.3262 41.2246Q73.2171 41.388 73.0925 41.5398Q72.9679 41.6916 72.829 41.8305Q72.6901 41.9694 72.5383 42.094Q72.3865 42.2186 72.2231 42.3277Q72.0598 42.4368 71.8866 42.5294Q71.7134 42.622 71.5319 42.6972Q71.3505 42.7723 71.1625 42.8293Q70.9746 42.8864 70.7819 42.9247Q70.5893 42.963 70.3938 42.9823Q70.1984 43.0015 70.002 43.0015L21.5 43.0015Q20.9722 43.0015 20.445 42.9756Q19.9179 42.9497 19.3926 42.898Q18.8674 42.8462 18.3453 42.7688Q17.8232 42.6914 17.3056 42.5884Q16.7879 42.4854 16.2759 42.3572Q15.7639 42.2289 15.2589 42.0757Q14.7538 41.9225 14.2569 41.7447Q13.7599 41.5669 13.2723 41.3649Q12.7847 41.1629 12.3076 40.9373Q11.8304 40.7116 11.365 40.4628Q10.8995 40.214 10.4468 39.9427Q9.99409 39.6713 9.55524 39.3781Q9.11639 39.0849 8.69246 38.7705Q8.26854 38.4561 7.86054 38.1212Q7.45255 37.7864 7.06148 37.432Q6.67041 37.0775 6.2972 36.7043Q5.924 36.3311 5.56955 35.94Q5.2151 35.5489 4.88028 35.141Q4.54544 34.733 4.23104 34.309Q3.91663 33.8851 3.6234 33.4463Q3.33018 33.0074 3.05883 32.5547Q2.78749 32.102 2.53869 31.6365Q2.28989 31.1711 2.06423 30.6939Q1.83857 30.2168 1.63659 29.7292Q1.43461 29.2416 1.2568 28.7446Q1.07899 28.2477 0.925783 27.7426Q0.772572 27.2376 0.644328 26.7256Q0.516084 26.2136 0.413116 25.6959Q0.310149 25.1783 0.232705 24.6562Q0.155261 24.1341 0.103528 23.6089Q0.0517954 23.0836 0.0258977 22.5565Q0 22.0293 0 21.5015Z" id="Rectangle-6" fill="#10527A" fill-rule="evenodd" stroke="none" />
    </g>
    <g id="Group-9" transform="translate(0 235)" clip-path="url(#clip_1)">
      <path d="M375 3.99805L375 39.0035Q375 39.1999 374.981 39.3953Q374.962 39.5908 374.923 39.7834Q374.885 39.9761 374.828 40.164Q374.771 40.352 374.696 40.5334Q374.621 40.7149 374.528 40.8881Q374.435 41.0613 374.326 41.2246Q374.217 41.388 374.092 41.5398Q373.968 41.6916 373.829 41.8305Q373.69 41.9694 373.538 42.094Q373.386 42.2186 373.223 42.3277Q373.06 42.4368 372.887 42.5294Q372.713 42.622 372.532 42.6972Q372.35 42.7723 372.162 42.8293Q371.975 42.8864 371.782 42.9247Q371.589 42.963 371.394 42.9823Q371.198 43.0015 371.002 43.0015L141.998 43.0015Q141.802 43.0015 141.606 42.9823Q141.411 42.963 141.218 42.9247Q141.025 42.8864 140.837 42.8293Q140.65 42.7723 140.468 42.6972Q140.287 42.622 140.113 42.5294Q139.94 42.4368 139.777 42.3277Q139.614 42.2186 139.462 42.094Q139.31 41.9694 139.171 41.8305Q139.032 41.6916 138.908 41.5398Q138.783 41.388 138.674 41.2246Q138.565 41.0613 138.472 40.8881Q138.379 40.7149 138.304 40.5334Q138.229 40.352 138.172 40.164Q138.115 39.9761 138.077 39.7834Q138.038 39.5908 138.019 39.3953Q138 39.1999 138 39.0035L138 3.99805Q138 3.80164 138.019 3.60617Q138.038 3.4107 138.077 3.21807Q138.115 3.02543 138.172 2.83748Q138.229 2.64952 138.304 2.46806Q138.379 2.2866 138.472 2.11338Q138.565 1.94016 138.674 1.77685Q138.783 1.61354 138.908 1.46171Q139.032 1.30988 139.171 1.171Q139.31 1.03212 139.462 0.907515Q139.614 0.782913 139.777 0.673792Q139.94 0.564672 140.113 0.472084Q140.287 0.379497 140.468 0.304333Q140.65 0.22917 140.837 0.172155Q141.025 0.115139 141.218 0.0768213Q141.411 0.0385034 141.606 0.0192517Q141.802 0 141.998 0L371.002 0Q371.198 0 371.394 0.0192517Q371.589 0.0385034 371.782 0.0768213Q371.975 0.115139 372.162 0.172155Q372.35 0.22917 372.532 0.304333Q372.713 0.379497 372.887 0.472084Q373.06 0.564672 373.223 0.673792Q373.386 0.782913 373.538 0.907515Q373.69 1.03212 373.829 1.171Q373.968 1.30988 374.092 1.46171Q374.217 1.61354 374.326 1.77685Q374.435 1.94016 374.528 2.11338Q374.62 2.2866 374.696 2.46806Q374.771 2.64952 374.828 2.83748Q374.885 3.02543 374.923 3.21807Q374.962 3.4107 374.981 3.60617Q375 3.80164 375 3.99805L375 3.99805Z" id="Rectangle-5" fill="#10527A" fill-rule="evenodd" stroke="none" />
      <path d="M512 21.5L512 21.5015Q512 22.0293 511.974 22.5565Q511.948 23.0836 511.896 23.6089Q511.845 24.1341 511.767 24.6562Q511.69 25.1783 511.587 25.6959Q511.484 26.2136 511.356 26.7256Q511.227 27.2376 511.074 27.7426Q510.921 28.2477 510.743 28.7446Q510.565 29.2416 510.363 29.7292Q510.161 30.2168 509.936 30.6939Q509.71 31.1711 509.461 31.6365Q509.212 32.102 508.941 32.5547Q508.67 33.0074 508.377 33.4463Q508.083 33.8851 507.769 34.309Q507.454 34.733 507.12 35.141Q506.785 35.5489 506.43 35.94Q506.076 36.3311 505.703 36.7043Q505.33 37.0775 504.939 37.432Q504.547 37.7864 504.139 38.1212Q503.731 38.4561 503.307 38.7705Q502.884 39.0849 502.445 39.3781Q502.006 39.6713 501.553 39.9427Q501.1 40.214 500.635 40.4628Q500.169 40.7116 499.692 40.9373Q499.215 41.1629 498.728 41.3649Q498.24 41.5669 497.743 41.7447Q497.246 41.9225 496.741 42.0757Q496.236 42.2289 495.724 42.3572Q495.212 42.4854 494.694 42.5884Q494.177 42.6914 493.655 42.7688Q493.133 42.8462 492.607 42.898Q492.082 42.9497 491.555 42.9756Q491.028 43.0015 490.5 43.0015L441.998 43.0015Q441.802 43.0015 441.606 42.9823Q441.411 42.963 441.218 42.9247Q441.025 42.8864 440.837 42.8293Q440.65 42.7723 440.468 42.6972Q440.287 42.622 440.113 42.5294Q439.94 42.4368 439.777 42.3277Q439.614 42.2186 439.462 42.094Q439.31 41.9694 439.171 41.8305Q439.032 41.6916 438.907 41.5398Q438.783 41.388 438.674 41.2246Q438.565 41.0613 438.472 40.8881Q438.379 40.7149 438.304 40.5334Q438.229 40.352 438.172 40.164Q438.115 39.9761 438.077 39.7834Q438.038 39.5908 438.019 39.3953Q438 39.1999 438 39.0035L438 3.99805Q438 3.80164 438.019 3.60617Q438.038 3.4107 438.077 3.21807Q438.115 3.02543 438.172 2.83748Q438.229 2.64952 438.304 2.46806Q438.379 2.2866 438.472 2.11338Q438.565 1.94016 438.674 1.77685Q438.783 1.61354 438.907 1.46171Q439.032 1.30988 439.171 1.171Q439.31 1.03212 439.462 0.907515Q439.614 0.782913 439.777 0.673792Q439.94 0.564672 440.113 0.472084Q440.287 0.379497 440.468 0.304333Q440.65 0.22917 440.837 0.172155Q441.025 0.115139 441.218 0.0768213Q441.411 0.0385034 441.606 0.0192517Q441.802 0 441.998 0L490.5 0Q491.028 0 491.555 0.0258977Q492.082 0.0517954 492.607 0.103528Q493.133 0.155261 493.655 0.232705Q494.177 0.310149 494.694 0.413116Q495.212 0.516084 495.724 0.644328Q496.236 0.772572 496.741 0.925783Q497.246 1.07899 497.743 1.2568Q498.24 1.43461 498.728 1.63659Q499.215 1.83857 499.692 2.06423Q500.169 2.28989 500.635 2.53869Q501.1 2.78749 501.553 3.05883Q502.006 3.33018 502.445 3.6234Q502.884 3.91663 503.307 4.23104Q503.731 4.54544 504.139 4.88027Q504.547 5.2151 504.939 5.56955Q505.33 5.924 505.703 6.2972Q506.076 6.67041 506.43 7.06148Q506.785 7.45255 507.12 7.86054Q507.455 8.26854 507.769 8.69246Q508.083 9.11639 508.377 9.55524Q508.67 9.99409 508.941 10.4468Q509.212 10.8995 509.461 11.365Q509.71 11.8304 509.936 12.3076Q510.161 12.7847 510.363 13.2723Q510.565 13.7599 510.743 14.2569Q510.921 14.7538 511.074 15.2589Q511.227 15.7639 511.356 16.2759Q511.484 16.7879 511.587 17.3056Q511.69 17.8232 511.767 18.3453Q511.845 18.8674 511.896 19.3926Q511.948 19.9179 511.974 20.445Q512 20.9722 512 21.5Z" id="Rectangle-4" fill="#10527A" fill-rule="evenodd" stroke="none" />
      <path d="M0 21.5015L0 21.5Q0 20.9722 0.0258977 20.445Q0.0517954 19.9179 0.103528 19.3926Q0.155261 18.8674 0.232705 18.3453Q0.310149 17.8232 0.413116 17.3056Q0.516084 16.7879 0.644328 16.2759Q0.772572 15.7639 0.925783 15.2589Q1.07899 14.7538 1.2568 14.2569Q1.43461 13.7599 1.63659 13.2723Q1.83857 12.7847 2.06423 12.3076Q2.28989 11.8304 2.53869 11.365Q2.78749 10.8995 3.05883 10.4468Q3.33018 9.99409 3.6234 9.55524Q3.91663 9.11639 4.23104 8.69246Q4.54544 8.26854 4.88027 7.86054Q5.2151 7.45255 5.56955 7.06148Q5.924 6.67041 6.2972 6.2972Q6.67041 5.924 7.06148 5.56955Q7.45255 5.2151 7.86054 4.88028Q8.26854 4.54544 8.69246 4.23104Q9.11639 3.91663 9.55524 3.6234Q9.99409 3.33018 10.4468 3.05883Q10.8995 2.78749 11.365 2.53869Q11.8304 2.28989 12.3076 2.06423Q12.7847 1.83857 13.2723 1.63659Q13.7599 1.43461 14.2569 1.2568Q14.7538 1.07899 15.2589 0.925783Q15.7639 0.772572 16.2759 0.644328Q16.7879 0.516084 17.3056 0.413116Q17.8232 0.310149 18.3453 0.232705Q18.8674 0.155261 19.3926 0.103528Q19.9179 0.0517954 20.445 0.0258977Q20.9722 0 21.5 0L70.002 0Q70.1984 0 70.3938 0.0192517Q70.5893 0.0385034 70.7819 0.0768213Q70.9746 0.115139 71.1625 0.172155Q71.3505 0.22917 71.5319 0.304333Q71.7134 0.379497 71.8866 0.472084Q72.0598 0.564672 72.2231 0.673792Q72.3865 0.782913 72.5383 0.907515Q72.6901 1.03212 72.829 1.171Q72.9679 1.30988 73.0925 1.46171Q73.2171 1.61354 73.3262 1.77685Q73.4353 1.94016 73.5279 2.11338Q73.6205 2.2866 73.6957 2.46806Q73.7708 2.64952 73.8278 2.83748Q73.8849 3.02543 73.9232 3.21807Q73.9615 3.4107 73.9808 3.60617Q74 3.80164 74 3.99805L74 39.0035Q74 39.1999 73.9808 39.3953Q73.9615 39.5908 73.9232 39.7834Q73.8849 39.9761 73.8278 40.164Q73.7708 40.352 73.6957 40.5334Q73.6205 40.7149 73.5279 40.8881Q73.4353 41.0613 73.3262 41.2246Q73.2171 41.388 73.0925 41.5398Q72.9679 41.6916 72.829 41.8305Q72.6901 41.9694 72.5383 42.094Q72.3865 42.2186 72.2231 42.3277Q72.0598 42.4368 71.8866 42.5294Q71.7134 42.622 71.5319 42.6972Q71.3505 42.7723 71.1625 42.8293Q70.9746 42.8864 70.7819 42.9247Q70.5893 42.963 70.3938 42.9823Q70.1984 43.0015 70.002 43.0015L21.5 43.0015Q20.9722 43.0015 20.445 42.9756Q19.9179 42.9497 19.3926 42.898Q18.8674 42.8462 18.3453 42.7688Q17.8232 42.6914 17.3056 42.5884Q16.7879 42.4854 16.2759 42.3572Q15.7639 42.2289 15.2589 42.0757Q14.7538 41.9225 14.2569 41.7447Q13.7599 41.5669 13.2723 41.3649Q12.7847 41.1629 12.3076 40.9373Q11.8304 40.7116 11.365 40.4628Q10.8995 40.214 10.4468 39.9427Q9.99409 39.6713 9.55524 39.3781Q9.11639 39.0849 8.69246 38.7705Q8.26854 38.4561 7.86054 38.1212Q7.45255 37.7864 7.06148 37.432Q6.67041 37.0775 6.2972 36.7043Q5.924 36.3311 5.56955 35.94Q5.2151 35.5489 4.88028 35.141Q4.54544 34.733 4.23104 34.309Q3.91663 33.8851 3.6234 33.4463Q3.33018 33.0074 3.05883 32.5547Q2.78749 32.102 2.53869 31.6365Q2.28989 31.1711 2.06423 30.6939Q1.83857 30.2168 1.63659 29.7292Q1.43461 29.2416 1.2568 28.7446Q1.07899 28.2477 0.925783 27.7426Q0.772572 27.2376 0.644328 26.7256Q0.516084 26.2136 0.413116 25.6959Q0.310149 25.1783 0.232705 24.6562Q0.155261 24.1341 0.103528 23.6089Q0.0517954 23.0836 0.0258977 22.5565Q0 22.0293 0 21.5015Z" id="Rectangle-6" fill="#10527A" fill-rule="evenodd" stroke="none" />
    </g>
    <g id="Group-10" transform="translate(0 323)" clip-path="url(#clip_1)">
      <path d="M375 3.99805L375 39.0035Q375 39.1999 374.981 39.3953Q374.962 39.5908 374.923 39.7834Q374.885 39.9761 374.828 40.164Q374.771 40.352 374.696 40.5334Q374.621 40.7149 374.528 40.8881Q374.435 41.0613 374.326 41.2246Q374.217 41.388 374.092 41.5398Q373.968 41.6916 373.829 41.8305Q373.69 41.9694 373.538 42.094Q373.386 42.2186 373.223 42.3277Q373.06 42.4368 372.887 42.5294Q372.713 42.622 372.532 42.6972Q372.35 42.7723 372.162 42.8293Q371.975 42.8864 371.782 42.9247Q371.589 42.963 371.394 42.9823Q371.198 43.0015 371.002 43.0015L141.998 43.0015Q141.802 43.0015 141.606 42.9823Q141.411 42.963 141.218 42.9247Q141.025 42.8864 140.837 42.8293Q140.65 42.7723 140.468 42.6972Q140.287 42.622 140.113 42.5294Q139.94 42.4368 139.777 42.3277Q139.614 42.2186 139.462 42.094Q139.31 41.9694 139.171 41.8305Q139.032 41.6916 138.908 41.5398Q138.783 41.388 138.674 41.2246Q138.565 41.0613 138.472 40.8881Q138.379 40.7149 138.304 40.5334Q138.229 40.352 138.172 40.164Q138.115 39.9761 138.077 39.7834Q138.038 39.5908 138.019 39.3953Q138 39.1999 138 39.0035L138 3.99805Q138 3.80164 138.019 3.60617Q138.038 3.4107 138.077 3.21807Q138.115 3.02543 138.172 2.83748Q138.229 2.64952 138.304 2.46806Q138.379 2.2866 138.472 2.11338Q138.565 1.94016 138.674 1.77685Q138.783 1.61354 138.908 1.46171Q139.032 1.30988 139.171 1.171Q139.31 1.03212 139.462 0.907515Q139.614 0.782913 139.777 0.673792Q139.94 0.564672 140.113 0.472084Q140.287 0.379497 140.468 0.304333Q140.65 0.22917 140.837 0.172155Q141.025 0.115139 141.218 0.0768213Q141.411 0.0385034 141.606 0.0192517Q141.802 0 141.998 0L371.002 0Q371.198 0 371.394 0.0192517Q371.589 0.0385034 371.782 0.0768213Q371.975 0.115139 372.162 0.172155Q372.35 0.22917 372.532 0.304333Q372.713 0.379497 372.887 0.472084Q373.06 0.564672 373.223 0.673792Q373.386 0.782913 373.538 0.907515Q373.69 1.03212 373.829 1.171Q373.968 1.30988 374.092 1.46171Q374.217 1.61354 374.326 1.77685Q374.435 1.94016 374.528 2.11338Q374.62 2.2866 374.696 2.46806Q374.771 2.64952 374.828 2.83748Q374.885 3.02543 374.923 3.21807Q374.962 3.4107 374.981 3.60617Q375 3.80164 375 3.99805L375 3.99805Z" id="Rectangle-5" fill="#10527A" fill-rule="evenodd" stroke="none" />
      <path d="M512 21.5L512 21.5015Q512 22.0293 511.974 22.5565Q511.948 23.0836 511.896 23.6089Q511.845 24.1341 511.767 24.6562Q511.69 25.1783 511.587 25.6959Q511.484 26.2136 511.356 26.7256Q511.227 27.2376 511.074 27.7426Q510.921 28.2477 510.743 28.7446Q510.565 29.2416 510.363 29.7292Q510.161 30.2168 509.936 30.6939Q509.71 31.1711 509.461 31.6365Q509.212 32.102 508.941 32.5547Q508.67 33.0074 508.377 33.4463Q508.083 33.8851 507.769 34.309Q507.454 34.733 507.12 35.141Q506.785 35.5489 506.43 35.94Q506.076 36.3311 505.703 36.7043Q505.33 37.0775 504.939 37.432Q504.547 37.7864 504.139 38.1212Q503.731 38.4561 503.307 38.7705Q502.884 39.0849 502.445 39.3781Q502.006 39.6713 501.553 39.9427Q501.1 40.214 500.635 40.4628Q500.169 40.7116 499.692 40.9373Q499.215 41.1629 498.728 41.3649Q498.24 41.5669 497.743 41.7447Q497.246 41.9225 496.741 42.0757Q496.236 42.2289 495.724 42.3572Q495.212 42.4854 494.694 42.5884Q494.177 42.6914 493.655 42.7688Q493.133 42.8462 492.607 42.898Q492.082 42.9497 491.555 42.9756Q491.028 43.0015 490.5 43.0015L441.998 43.0015Q441.802 43.0015 441.606 42.9823Q441.411 42.963 441.218 42.9247Q441.025 42.8864 440.837 42.8293Q440.65 42.7723 440.468 42.6972Q440.287 42.622 440.113 42.5294Q439.94 42.4368 439.777 42.3277Q439.614 42.2186 439.462 42.094Q439.31 41.9694 439.171 41.8305Q439.032 41.6916 438.907 41.5398Q438.783 41.388 438.674 41.2246Q438.565 41.0613 438.472 40.8881Q438.379 40.7149 438.304 40.5334Q438.229 40.352 438.172 40.164Q438.115 39.9761 438.077 39.7834Q438.038 39.5908 438.019 39.3953Q438 39.1999 438 39.0035L438 3.99805Q438 3.80164 438.019 3.60617Q438.038 3.4107 438.077 3.21807Q438.115 3.02543 438.172 2.83748Q438.229 2.64952 438.304 2.46806Q438.379 2.2866 438.472 2.11338Q438.565 1.94016 438.674 1.77685Q438.783 1.61354 438.907 1.46171Q439.032 1.30988 439.171 1.171Q439.31 1.03212 439.462 0.907515Q439.614 0.782913 439.777 0.673792Q439.94 0.564672 440.113 0.472084Q440.287 0.379497 440.468 0.304333Q440.65 0.22917 440.837 0.172155Q441.025 0.115139 441.218 0.0768213Q441.411 0.0385034 441.606 0.0192517Q441.802 0 441.998 0L490.5 0Q491.028 0 491.555 0.0258977Q492.082 0.0517954 492.607 0.103528Q493.133 0.155261 493.655 0.232705Q494.177 0.310149 494.694 0.413116Q495.212 0.516084 495.724 0.644328Q496.236 0.772572 496.741 0.925783Q497.246 1.07899 497.743 1.2568Q498.24 1.43461 498.728 1.63659Q499.215 1.83857 499.692 2.06423Q500.169 2.28989 500.635 2.53869Q501.1 2.78749 501.553 3.05883Q502.006 3.33018 502.445 3.6234Q502.884 3.91663 503.307 4.23104Q503.731 4.54544 504.139 4.88027Q504.547 5.2151 504.939 5.56955Q505.33 5.924 505.703 6.2972Q506.076 6.67041 506.43 7.06148Q506.785 7.45255 507.12 7.86054Q507.455 8.26854 507.769 8.69246Q508.083 9.11639 508.377 9.55524Q508.67 9.99409 508.941 10.4468Q509.212 10.8995 509.461 11.365Q509.71 11.8304 509.936 12.3076Q510.161 12.7847 510.363 13.2723Q510.565 13.7599 510.743 14.2569Q510.921 14.7538 511.074 15.2589Q511.227 15.7639 511.356 16.2759Q511.484 16.7879 511.587 17.3056Q511.69 17.8232 511.767 18.3453Q511.845 18.8674 511.896 19.3926Q511.948 19.9179 511.974 20.445Q512 20.9722 512 21.5Z" id="Rectangle-4" fill="#10527A" fill-rule="evenodd" stroke="none" />
      <path d="M0 21.5015L0 21.5Q0 20.9722 0.0258977 20.445Q0.0517954 19.9179 0.103528 19.3926Q0.155261 18.8674 0.232705 18.3453Q0.310149 17.8232 0.413116 17.3056Q0.516084 16.7879 0.644328 16.2759Q0.772572 15.7639 0.925783 15.2589Q1.07899 14.7538 1.2568 14.2569Q1.43461 13.7599 1.63659 13.2723Q1.83857 12.7847 2.06423 12.3076Q2.28989 11.8304 2.53869 11.365Q2.78749 10.8995 3.05883 10.4468Q3.33018 9.99409 3.6234 9.55524Q3.91663 9.11639 4.23104 8.69246Q4.54544 8.26854 4.88027 7.86054Q5.2151 7.45255 5.56955 7.06148Q5.924 6.67041 6.2972 6.2972Q6.67041 5.924 7.06148 5.56955Q7.45255 5.2151 7.86054 4.88028Q8.26854 4.54544 8.69246 4.23104Q9.11639 3.91663 9.55524 3.6234Q9.99409 3.33018 10.4468 3.05883Q10.8995 2.78749 11.365 2.53869Q11.8304 2.28989 12.3076 2.06423Q12.7847 1.83857 13.2723 1.63659Q13.7599 1.43461 14.2569 1.2568Q14.7538 1.07899 15.2589 0.925783Q15.7639 0.772572 16.2759 0.644328Q16.7879 0.516084 17.3056 0.413116Q17.8232 0.310149 18.3453 0.232705Q18.8674 0.155261 19.3926 0.103528Q19.9179 0.0517954 20.445 0.0258977Q20.9722 0 21.5 0L70.002 0Q70.1984 0 70.3938 0.0192517Q70.5893 0.0385034 70.7819 0.0768213Q70.9746 0.115139 71.1625 0.172155Q71.3505 0.22917 71.5319 0.304333Q71.7134 0.379497 71.8866 0.472084Q72.0598 0.564672 72.2231 0.673792Q72.3865 0.782913 72.5383 0.907515Q72.6901 1.03212 72.829 1.171Q72.9679 1.30988 73.0925 1.46171Q73.2171 1.61354 73.3262 1.77685Q73.4353 1.94016 73.5279 2.11338Q73.6205 2.2866 73.6957 2.46806Q73.7708 2.64952 73.8278 2.83748Q73.8849 3.02543 73.9232 3.21807Q73.9615 3.4107 73.9808 3.60617Q74 3.80164 74 3.99805L74 39.0035Q74 39.1999 73.9808 39.3953Q73.9615 39.5908 73.9232 39.7834Q73.8849 39.9761 73.8278 40.164Q73.7708 40.352 73.6957 40.5334Q73.6205 40.7149 73.5279 40.8881Q73.4353 41.0613 73.3262 41.2246Q73.2171 41.388 73.0925 41.5398Q72.9679 41.6916 72.829 41.8305Q72.6901 41.9694 72.5383 42.094Q72.3865 42.2186 72.2231 42.3277Q72.0598 42.4368 71.8866 42.5294Q71.7134 42.622 71.5319 42.6972Q71.3505 42.7723 71.1625 42.8293Q70.9746 42.8864 70.7819 42.9247Q70.5893 42.963 70.3938 42.9823Q70.1984 43.0015 70.002 43.0015L21.5 43.0015Q20.9722 43.0015 20.445 42.9756Q19.9179 42.9497 19.3926 42.898Q18.8674 42.8462 18.3453 42.7688Q17.8232 42.6914 17.3056 42.5884Q16.7879 42.4854 16.2759 42.3572Q15.7639 42.2289 15.2589 42.0757Q14.7538 41.9225 14.2569 41.7447Q13.7599 41.5669 13.2723 41.3649Q12.7847 41.1629 12.3076 40.9373Q11.8304 40.7116 11.365 40.4628Q10.8995 40.214 10.4468 39.9427Q9.99409 39.6713 9.55524 39.3781Q9.11639 39.0849 8.69246 38.7705Q8.26854 38.4561 7.86054 38.1212Q7.45255 37.7864 7.06148 37.432Q6.67041 37.0775 6.2972 36.7043Q5.924 36.3311 5.56955 35.94Q5.2151 35.5489 4.88028 35.141Q4.54544 34.733 4.23104 34.309Q3.91663 33.8851 3.6234 33.4463Q3.33018 33.0074 3.05883 32.5547Q2.78749 32.102 2.53869 31.6365Q2.28989 31.1711 2.06423 30.6939Q1.83857 30.2168 1.63659 29.7292Q1.43461 29.2416 1.2568 28.7446Q1.07899 28.2477 0.925783 27.7426Q0.772572 27.2376 0.644328 26.7256Q0.516084 26.2136 0.413116 25.6959Q0.310149 25.1783 0.232705 24.6562Q0.155261 24.1341 0.103528 23.6089Q0.0517954 23.0836 0.0258977 22.5565Q0 22.0293 0 21.5015Z" id="Rectangle-6" fill="#10527A" fill-rule="evenodd" stroke="none" />
    </g>
    <g id="Group-10" transform="translate(0 323)" clip-path="url(#clip_1)">
      <path d="M375 3.99805L375 39.0035Q375 39.1999 374.981 39.3953Q374.962 39.5908 374.923 39.7834Q374.885 39.9761 374.828 40.164Q374.771 40.352 374.696 40.5334Q374.621 40.7149 374.528 40.8881Q374.435 41.0613 374.326 41.2246Q374.217 41.388 374.092 41.5398Q373.968 41.6916 373.829 41.8305Q373.69 41.9694 373.538 42.094Q373.386 42.2186 373.223 42.3277Q373.06 42.4368 372.887 42.5294Q372.713 42.622 372.532 42.6972Q372.35 42.7723 372.162 42.8293Q371.975 42.8864 371.782 42.9247Q371.589 42.963 371.394 42.9823Q371.198 43.0015 371.002 43.0015L141.998 43.0015Q141.802 43.0015 141.606 42.9823Q141.411 42.963 141.218 42.9247Q141.025 42.8864 140.837 42.8293Q140.65 42.7723 140.468 42.6972Q140.287 42.622 140.113 42.5294Q139.94 42.4368 139.777 42.3277Q139.614 42.2186 139.462 42.094Q139.31 41.9694 139.171 41.8305Q139.032 41.6916 138.908 41.5398Q138.783 41.388 138.674 41.2246Q138.565 41.0613 138.472 40.8881Q138.379 40.7149 138.304 40.5334Q138.229 40.352 138.172 40.164Q138.115 39.9761 138.077 39.7834Q138.038 39.5908 138.019 39.3953Q138 39.1999 138 39.0035L138 3.99805Q138 3.80164 138.019 3.60617Q138.038 3.4107 138.077 3.21807Q138.115 3.02543 138.172 2.83748Q138.229 2.64952 138.304 2.46806Q138.379 2.2866 138.472 2.11338Q138.565 1.94016 138.674 1.77685Q138.783 1.61354 138.908 1.46171Q139.032 1.30988 139.171 1.171Q139.31 1.03212 139.462 0.907515Q139.614 0.782913 139.777 0.673792Q139.94 0.564672 140.113 0.472084Q140.287 0.379497 140.468 0.304333Q140.65 0.22917 140.837 0.172155Q141.025 0.115139 141.218 0.0768213Q141.411 0.0385034 141.606 0.0192517Q141.802 0 141.998 0L371.002 0Q371.198 0 371.394 0.0192517Q371.589 0.0385034 371.782 0.0768213Q371.975 0.115139 372.162 0.172155Q372.35 0.22917 372.532 0.304333Q372.713 0.379497 372.887 0.472084Q373.06 0.564672 373.223 0.673792Q373.386 0.782913 373.538 0.907515Q373.69 1.03212 373.829 1.171Q373.968 1.30988 374.092 1.46171Q374.217 1.61354 374.326 1.77685Q374.435 1.94016 374.528 2.11338Q374.62 2.2866 374.696 2.46806Q374.771 2.64952 374.828 2.83748Q374.885 3.02543 374.923 3.21807Q374.962 3.4107 374.981 3.60617Q375 3.80164 375 3.99805L375 3.99805Z" id="Rectangle-5" fill="#10527A" fill-rule="evenodd" stroke="none" />
      <path d="M512 21.5L512 21.5015Q512 22.0293 511.974 22.5565Q511.948 23.0836 511.896 23.6089Q511.845 24.1341 511.767 24.6562Q511.69 25.1783 511.587 25.6959Q511.484 26.2136 511.356 26.7256Q511.227 27.2376 511.074 27.7426Q510.921 28.2477 510.743 28.7446Q510.565 29.2416 510.363 29.7292Q510.161 30.2168 509.936 30.6939Q509.71 31.1711 509.461 31.6365Q509.212 32.102 508.941 32.5547Q508.67 33.0074 508.377 33.4463Q508.083 33.8851 507.769 34.309Q507.454 34.733 507.12 35.141Q506.785 35.5489 506.43 35.94Q506.076 36.3311 505.703 36.7043Q505.33 37.0775 504.939 37.432Q504.547 37.7864 504.139 38.1212Q503.731 38.4561 503.307 38.7705Q502.884 39.0849 502.445 39.3781Q502.006 39.6713 501.553 39.9427Q501.1 40.214 500.635 40.4628Q500.169 40.7116 499.692 40.9373Q499.215 41.1629 498.728 41.3649Q498.24 41.5669 497.743 41.7447Q497.246 41.9225 496.741 42.0757Q496.236 42.2289 495.724 42.3572Q495.212 42.4854 494.694 42.5884Q494.177 42.6914 493.655 42.7688Q493.133 42.8462 492.607 42.898Q492.082 42.9497 491.555 42.9756Q491.028 43.0015 490.5 43.0015L441.998 43.0015Q441.802 43.0015 441.606 42.9823Q441.411 42.963 441.218 42.9247Q441.025 42.8864 440.837 42.8293Q440.65 42.7723 440.468 42.6972Q440.287 42.622 440.113 42.5294Q439.94 42.4368 439.777 42.3277Q439.614 42.2186 439.462 42.094Q439.31 41.9694 439.171 41.8305Q439.032 41.6916 438.907 41.5398Q438.783 41.388 438.674 41.2246Q438.565 41.0613 438.472 40.8881Q438.379 40.7149 438.304 40.5334Q438.229 40.352 438.172 40.164Q438.115 39.9761 438.077 39.7834Q438.038 39.5908 438.019 39.3953Q438 39.1999 438 39.0035L438 3.99805Q438 3.80164 438.019 3.60617Q438.038 3.4107 438.077 3.21807Q438.115 3.02543 438.172 2.83748Q438.229 2.64952 438.304 2.46806Q438.379 2.2866 438.472 2.11338Q438.565 1.94016 438.674 1.77685Q438.783 1.61354 438.907 1.46171Q439.032 1.30988 439.171 1.171Q439.31 1.03212 439.462 0.907515Q439.614 0.782913 439.777 0.673792Q439.94 0.564672 440.113 0.472084Q440.287 0.379497 440.468 0.304333Q440.65 0.22917 440.837 0.172155Q441.025 0.115139 441.218 0.0768213Q441.411 0.0385034 441.606 0.0192517Q441.802 0 441.998 0L490.5 0Q491.028 0 491.555 0.0258977Q492.082 0.0517954 492.607 0.103528Q493.133 0.155261 493.655 0.232705Q494.177 0.310149 494.694 0.413116Q495.212 0.516084 495.724 0.644328Q496.236 0.772572 496.741 0.925783Q497.246 1.07899 497.743 1.2568Q498.24 1.43461 498.728 1.63659Q499.215 1.83857 499.692 2.06423Q500.169 2.28989 500.635 2.53869Q501.1 2.78749 501.553 3.05883Q502.006 3.33018 502.445 3.6234Q502.884 3.91663 503.307 4.23104Q503.731 4.54544 504.139 4.88027Q504.547 5.2151 504.939 5.56955Q505.33 5.924 505.703 6.2972Q506.076 6.67041 506.43 7.06148Q506.785 7.45255 507.12 7.86054Q507.455 8.26854 507.769 8.69246Q508.083 9.11639 508.377 9.55524Q508.67 9.99409 508.941 10.4468Q509.212 10.8995 509.461 11.365Q509.71 11.8304 509.936 12.3076Q510.161 12.7847 510.363 13.2723Q510.565 13.7599 510.743 14.2569Q510.921 14.7538 511.074 15.2589Q511.227 15.7639 511.356 16.2759Q511.484 16.7879 511.587 17.3056Q511.69 17.8232 511.767 18.3453Q511.845 18.8674 511.896 19.3926Q511.948 19.9179 511.974 20.445Q512 20.9722 512 21.5Z" id="Rectangle-4" fill="#10527A" fill-rule="evenodd" stroke="none" />
      <path d="M0 21.5015L0 21.5Q0 20.9722 0.0258977 20.445Q0.0517954 19.9179 0.103528 19.3926Q0.155261 18.8674 0.232705 18.3453Q0.310149 17.8232 0.413116 17.3056Q0.516084 16.7879 0.644328 16.2759Q0.772572 15.7639 0.925783 15.2589Q1.07899 14.7538 1.2568 14.2569Q1.43461 13.7599 1.63659 13.2723Q1.83857 12.7847 2.06423 12.3076Q2.28989 11.8304 2.53869 11.365Q2.78749 10.8995 3.05883 10.4468Q3.33018 9.99409 3.6234 9.55524Q3.91663 9.11639 4.23104 8.69246Q4.54544 8.26854 4.88027 7.86054Q5.2151 7.45255 5.56955 7.06148Q5.924 6.67041 6.2972 6.2972Q6.67041 5.924 7.06148 5.56955Q7.45255 5.2151 7.86054 4.88028Q8.26854 4.54544 8.69246 4.23104Q9.11639 3.91663 9.55524 3.6234Q9.99409 3.33018 10.4468 3.05883Q10.8995 2.78749 11.365 2.53869Q11.8304 2.28989 12.3076 2.06423Q12.7847 1.83857 13.2723 1.63659Q13.7599 1.43461 14.2569 1.2568Q14.7538 1.07899 15.2589 0.925783Q15.7639 0.772572 16.2759 0.644328Q16.7879 0.516084 17.3056 0.413116Q17.8232 0.310149 18.3453 0.232705Q18.8674 0.155261 19.3926 0.103528Q19.9179 0.0517954 20.445 0.0258977Q20.9722 0 21.5 0L70.002 0Q70.1984 0 70.3938 0.0192517Q70.5893 0.0385034 70.7819 0.0768213Q70.9746 0.115139 71.1625 0.172155Q71.3505 0.22917 71.5319 0.304333Q71.7134 0.379497 71.8866 0.472084Q72.0598 0.564672 72.2231 0.673792Q72.3865 0.782913 72.5383 0.907515Q72.6901 1.03212 72.829 1.171Q72.9679 1.30988 73.0925 1.46171Q73.2171 1.61354 73.3262 1.77685Q73.4353 1.94016 73.5279 2.11338Q73.6205 2.2866 73.6957 2.46806Q73.7708 2.64952 73.8278 2.83748Q73.8849 3.02543 73.9232 3.21807Q73.9615 3.4107 73.9808 3.60617Q74 3.80164 74 3.99805L74 39.0035Q74 39.1999 73.9808 39.3953Q73.9615 39.5908 73.9232 39.7834Q73.8849 39.9761 73.8278 40.164Q73.7708 40.352 73.6957 40.5334Q73.6205 40.7149 73.5279 40.8881Q73.4353 41.0613 73.3262 41.2246Q73.2171 41.388 73.0925 41.5398Q72.9679 41.6916 72.829 41.8305Q72.6901 41.9694 72.5383 42.094Q72.3865 42.2186 72.2231 42.3277Q72.0598 42.4368 71.8866 42.5294Q71.7134 42.622 71.5319 42.6972Q71.3505 42.7723 71.1625 42.8293Q70.9746 42.8864 70.7819 42.9247Q70.5893 42.963 70.3938 42.9823Q70.1984 43.0015 70.002 43.0015L21.5 43.0015Q20.9722 43.0015 20.445 42.9756Q19.9179 42.9497 19.3926 42.898Q18.8674 42.8462 18.3453 42.7688Q17.8232 42.6914 17.3056 42.5884Q16.7879 42.4854 16.2759 42.3572Q15.7639 42.2289 15.2589 42.0757Q14.7538 41.9225 14.2569 41.7447Q13.7599 41.5669 13.2723 41.3649Q12.7847 41.1629 12.3076 40.9373Q11.8304 40.7116 11.365 40.4628Q10.8995 40.214 10.4468 39.9427Q9.99409 39.6713 9.55524 39.3781Q9.11639 39.0849 8.69246 38.7705Q8.26854 38.4561 7.86054 38.1212Q7.45255 37.7864 7.06148 37.432Q6.67041 37.0775 6.2972 36.7043Q5.924 36.3311 5.56955 35.94Q5.2151 35.5489 4.88028 35.141Q4.54544 34.733 4.23104 34.309Q3.91663 33.8851 3.6234 33.4463Q3.33018 33.0074 3.05883 32.5547Q2.78749 32.102 2.53869 31.6365Q2.28989 31.1711 2.06423 30.6939Q1.83857 30.2168 1.63659 29.7292Q1.43461 29.2416 1.2568 28.7446Q1.07899 28.2477 0.925783 27.7426Q0.772572 27.2376 0.644328 26.7256Q0.516084 26.2136 0.413116 25.6959Q0.310149 25.1783 0.232705 24.6562Q0.155261 24.1341 0.103528 23.6089Q0.0517954 23.0836 0.0258977 22.5565Q0 22.0293 0 21.5015Z" id="Rectangle-6" fill="#10527A" fill-rule="evenodd" stroke="none" />
    </g>
    <g id="Group-11" transform="translate(0 411)" clip-path="url(#clip_1)">
      <path d="M375 3.99805L375 39.0035Q375 39.1999 374.981 39.3953Q374.962 39.5908 374.923 39.7834Q374.885 39.9761 374.828 40.164Q374.771 40.352 374.696 40.5334Q374.621 40.7149 374.528 40.8881Q374.435 41.0613 374.326 41.2246Q374.217 41.388 374.092 41.5398Q373.968 41.6916 373.829 41.8305Q373.69 41.9694 373.538 42.094Q373.386 42.2186 373.223 42.3277Q373.06 42.4368 372.887 42.5294Q372.713 42.622 372.532 42.6972Q372.35 42.7723 372.162 42.8293Q371.975 42.8864 371.782 42.9247Q371.589 42.963 371.394 42.9823Q371.198 43.0015 371.002 43.0015L141.998 43.0015Q141.802 43.0015 141.606 42.9823Q141.411 42.963 141.218 42.9247Q141.025 42.8864 140.837 42.8293Q140.65 42.7723 140.468 42.6972Q140.287 42.622 140.113 42.5294Q139.94 42.4368 139.777 42.3277Q139.614 42.2186 139.462 42.094Q139.31 41.9694 139.171 41.8305Q139.032 41.6916 138.908 41.5398Q138.783 41.388 138.674 41.2246Q138.565 41.0613 138.472 40.8881Q138.379 40.7149 138.304 40.5334Q138.229 40.352 138.172 40.164Q138.115 39.9761 138.077 39.7834Q138.038 39.5908 138.019 39.3953Q138 39.1999 138 39.0035L138 3.99805Q138 3.80164 138.019 3.60617Q138.038 3.4107 138.077 3.21807Q138.115 3.02543 138.172 2.83748Q138.229 2.64952 138.304 2.46806Q138.379 2.2866 138.472 2.11338Q138.565 1.94016 138.674 1.77685Q138.783 1.61354 138.908 1.46171Q139.032 1.30988 139.171 1.171Q139.31 1.03212 139.462 0.907515Q139.614 0.782913 139.777 0.673792Q139.94 0.564672 140.113 0.472084Q140.287 0.379497 140.468 0.304333Q140.65 0.22917 140.837 0.172155Q141.025 0.115139 141.218 0.0768213Q141.411 0.0385034 141.606 0.0192517Q141.802 0 141.998 0L371.002 0Q371.198 0 371.394 0.0192517Q371.589 0.0385034 371.782 0.0768213Q371.975 0.115139 372.162 0.172155Q372.35 0.22917 372.532 0.304333Q372.713 0.379497 372.887 0.472084Q373.06 0.564672 373.223 0.673792Q373.386 0.782913 373.538 0.907515Q373.69 1.03212 373.829 1.171Q373.968 1.30988 374.092 1.46171Q374.217 1.61354 374.326 1.77685Q374.435 1.94016 374.528 2.11338Q374.62 2.2866 374.696 2.46806Q374.771 2.64952 374.828 2.83748Q374.885 3.02543 374.923 3.21807Q374.962 3.4107 374.981 3.60617Q375 3.80164 375 3.99805L375 3.99805Z" id="Rectangle-5" fill="#10527A" fill-rule="evenodd" stroke="none" />
      <path d="M512 21.5L512 21.5015Q512 22.0293 511.974 22.5565Q511.948 23.0836 511.896 23.6089Q511.845 24.1341 511.767 24.6562Q511.69 25.1783 511.587 25.6959Q511.484 26.2136 511.356 26.7256Q511.227 27.2376 511.074 27.7426Q510.921 28.2477 510.743 28.7446Q510.565 29.2416 510.363 29.7292Q510.161 30.2168 509.936 30.6939Q509.71 31.1711 509.461 31.6365Q509.212 32.102 508.941 32.5547Q508.67 33.0074 508.377 33.4463Q508.083 33.8851 507.769 34.309Q507.454 34.733 507.12 35.141Q506.785 35.5489 506.43 35.94Q506.076 36.3311 505.703 36.7043Q505.33 37.0775 504.939 37.432Q504.547 37.7864 504.139 38.1212Q503.731 38.4561 503.307 38.7705Q502.884 39.0849 502.445 39.3781Q502.006 39.6713 501.553 39.9427Q501.1 40.214 500.635 40.4628Q500.169 40.7116 499.692 40.9373Q499.215 41.1629 498.728 41.3649Q498.24 41.5669 497.743 41.7447Q497.246 41.9225 496.741 42.0757Q496.236 42.2289 495.724 42.3572Q495.212 42.4854 494.694 42.5884Q494.177 42.6914 493.655 42.7688Q493.133 42.8462 492.607 42.898Q492.082 42.9497 491.555 42.9756Q491.028 43.0015 490.5 43.0015L441.998 43.0015Q441.802 43.0015 441.606 42.9823Q441.411 42.963 441.218 42.9247Q441.025 42.8864 440.837 42.8293Q440.65 42.7723 440.468 42.6972Q440.287 42.622 440.113 42.5294Q439.94 42.4368 439.777 42.3277Q439.614 42.2186 439.462 42.094Q439.31 41.9694 439.171 41.8305Q439.032 41.6916 438.907 41.5398Q438.783 41.388 438.674 41.2246Q438.565 41.0613 438.472 40.8881Q438.379 40.7149 438.304 40.5334Q438.229 40.352 438.172 40.164Q438.115 39.9761 438.077 39.7834Q438.038 39.5908 438.019 39.3953Q438 39.1999 438 39.0035L438 3.99805Q438 3.80164 438.019 3.60617Q438.038 3.4107 438.077 3.21807Q438.115 3.02543 438.172 2.83748Q438.229 2.64952 438.304 2.46806Q438.379 2.2866 438.472 2.11338Q438.565 1.94016 438.674 1.77685Q438.783 1.61354 438.907 1.46171Q439.032 1.30988 439.171 1.171Q439.31 1.03212 439.462 0.907515Q439.614 0.782913 439.777 0.673792Q439.94 0.564672 440.113 0.472084Q440.287 0.379497 440.468 0.304333Q440.65 0.22917 440.837 0.172155Q441.025 0.115139 441.218 0.0768213Q441.411 0.0385034 441.606 0.0192517Q441.802 0 441.998 0L490.5 0Q491.028 0 491.555 0.0258977Q492.082 0.0517954 492.607 0.103528Q493.133 0.155261 493.655 0.232705Q494.177 0.310149 494.694 0.413116Q495.212 0.516084 495.724 0.644328Q496.236 0.772572 496.741 0.925783Q497.246 1.07899 497.743 1.2568Q498.24 1.43461 498.728 1.63659Q499.215 1.83857 499.692 2.06423Q500.169 2.28989 500.635 2.53869Q501.1 2.78749 501.553 3.05883Q502.006 3.33018 502.445 3.6234Q502.884 3.91663 503.307 4.23104Q503.731 4.54544 504.139 4.88027Q504.547 5.2151 504.939 5.56955Q505.33 5.924 505.703 6.2972Q506.076 6.67041 506.43 7.06148Q506.785 7.45255 507.12 7.86054Q507.455 8.26854 507.769 8.69246Q508.083 9.11639 508.377 9.55524Q508.67 9.99409 508.941 10.4468Q509.212 10.8995 509.461 11.365Q509.71 11.8304 509.936 12.3076Q510.161 12.7847 510.363 13.2723Q510.565 13.7599 510.743 14.2569Q510.921 14.7538 511.074 15.2589Q511.227 15.7639 511.356 16.2759Q511.484 16.7879 511.587 17.3056Q511.69 17.8232 511.767 18.3453Q511.845 18.8674 511.896 19.3926Q511.948 19.9179 511.974 20.445Q512 20.9722 512 21.5Z" id="Rectangle-4" fill="#10527A" fill-rule="evenodd" stroke="none" />
      <path d="M0 21.5015L0 21.5Q0 20.9722 0.0258977 20.445Q0.0517954 19.9179 0.103528 19.3926Q0.155261 18.8674 0.232705 18.3453Q0.310149 17.8232 0.413116 17.3056Q0.516084 16.7879 0.644328 16.2759Q0.772572 15.7639 0.925783 15.2589Q1.07899 14.7538 1.2568 14.2569Q1.43461 13.7599 1.63659 13.2723Q1.83857 12.7847 2.06423 12.3076Q2.28989 11.8304 2.53869 11.365Q2.78749 10.8995 3.05883 10.4468Q3.33018 9.99409 3.6234 9.55524Q3.91663 9.11639 4.23104 8.69246Q4.54544 8.26854 4.88027 7.86054Q5.2151 7.45255 5.56955 7.06148Q5.924 6.67041 6.2972 6.2972Q6.67041 5.924 7.06148 5.56955Q7.45255 5.2151 7.86054 4.88028Q8.26854 4.54544 8.69246 4.23104Q9.11639 3.91663 9.55524 3.6234Q9.99409 3.33018 10.4468 3.05883Q10.8995 2.78749 11.365 2.53869Q11.8304 2.28989 12.3076 2.06423Q12.7847 1.83857 13.2723 1.63659Q13.7599 1.43461 14.2569 1.2568Q14.7538 1.07899 15.2589 0.925783Q15.7639 0.772572 16.2759 0.644328Q16.7879 0.516084 17.3056 0.413116Q17.8232 0.310149 18.3453 0.232705Q18.8674 0.155261 19.3926 0.103528Q19.9179 0.0517954 20.445 0.0258977Q20.9722 0 21.5 0L70.002 0Q70.1984 0 70.3938 0.0192517Q70.5893 0.0385034 70.7819 0.0768213Q70.9746 0.115139 71.1625 0.172155Q71.3505 0.22917 71.5319 0.304333Q71.7134 0.379497 71.8866 0.472084Q72.0598 0.564672 72.2231 0.673792Q72.3865 0.782913 72.5383 0.907515Q72.6901 1.03212 72.829 1.171Q72.9679 1.30988 73.0925 1.46171Q73.2171 1.61354 73.3262 1.77685Q73.4353 1.94016 73.5279 2.11338Q73.6205 2.2866 73.6957 2.46806Q73.7708 2.64952 73.8278 2.83748Q73.8849 3.02543 73.9232 3.21807Q73.9615 3.4107 73.9808 3.60617Q74 3.80164 74 3.99805L74 39.0035Q74 39.1999 73.9808 39.3953Q73.9615 39.5908 73.9232 39.7834Q73.8849 39.9761 73.8278 40.164Q73.7708 40.352 73.6957 40.5334Q73.6205 40.7149 73.5279 40.8881Q73.4353 41.0613 73.3262 41.2246Q73.2171 41.388 73.0925 41.5398Q72.9679 41.6916 72.829 41.8305Q72.6901 41.9694 72.5383 42.094Q72.3865 42.2186 72.2231 42.3277Q72.0598 42.4368 71.8866 42.5294Q71.7134 42.622 71.5319 42.6972Q71.3505 42.7723 71.1625 42.8293Q70.9746 42.8864 70.7819 42.9247Q70.5893 42.963 70.3938 42.9823Q70.1984 43.0015 70.002 43.0015L21.5 43.0015Q20.9722 43.0015 20.445 42.9756Q19.9179 42.9497 19.3926 42.898Q18.8674 42.8462 18.3453 42.7688Q17.8232 42.6914 17.3056 42.5884Q16.7879 42.4854 16.2759 42.3572Q15.7639 42.2289 15.2589 42.0757Q14.7538 41.9225 14.2569 41.7447Q13.7599 41.5669 13.2723 41.3649Q12.7847 41.1629 12.3076 40.9373Q11.8304 40.7116 11.365 40.4628Q10.8995 40.214 10.4468 39.9427Q9.99409 39.6713 9.55524 39.3781Q9.11639 39.0849 8.69246 38.7705Q8.26854 38.4561 7.86054 38.1212Q7.45255 37.7864 7.06148 37.432Q6.67041 37.0775 6.2972 36.7043Q5.924 36.3311 5.56955 35.94Q5.2151 35.5489 4.88028 35.141Q4.54544 34.733 4.23104 34.309Q3.91663 33.8851 3.6234 33.4463Q3.33018 33.0074 3.05883 32.5547Q2.78749 32.102 2.53869 31.6365Q2.28989 31.1711 2.06423 30.6939Q1.83857 30.2168 1.63659 29.7292Q1.43461 29.2416 1.2568 28.7446Q1.07899 28.2477 0.925783 27.7426Q0.772572 27.2376 0.644328 26.7256Q0.516084 26.2136 0.413116 25.6959Q0.310149 25.1783 0.232705 24.6562Q0.155261 24.1341 0.103528 23.6089Q0.0517954 23.0836 0.0258977 22.5565Q0 22.0293 0 21.5015Z" id="Rectangle-6" fill="#10527A" fill-rule="evenodd" stroke="none" />
    </g>
    <g id="Group-11" transform="translate(0 411)" clip-path="url(#clip_1)">
      <path d="M375 3.99805L375 39.0035Q375 39.1999 374.981 39.3953Q374.962 39.5908 374.923 39.7834Q374.885 39.9761 374.828 40.164Q374.771 40.352 374.696 40.5334Q374.621 40.7149 374.528 40.8881Q374.435 41.0613 374.326 41.2246Q374.217 41.388 374.092 41.5398Q373.968 41.6916 373.829 41.8305Q373.69 41.9694 373.538 42.094Q373.386 42.2186 373.223 42.3277Q373.06 42.4368 372.887 42.5294Q372.713 42.622 372.532 42.6972Q372.35 42.7723 372.162 42.8293Q371.975 42.8864 371.782 42.9247Q371.589 42.963 371.394 42.9823Q371.198 43.0015 371.002 43.0015L141.998 43.0015Q141.802 43.0015 141.606 42.9823Q141.411 42.963 141.218 42.9247Q141.025 42.8864 140.837 42.8293Q140.65 42.7723 140.468 42.6972Q140.287 42.622 140.113 42.5294Q139.94 42.4368 139.777 42.3277Q139.614 42.2186 139.462 42.094Q139.31 41.9694 139.171 41.8305Q139.032 41.6916 138.908 41.5398Q138.783 41.388 138.674 41.2246Q138.565 41.0613 138.472 40.8881Q138.379 40.7149 138.304 40.5334Q138.229 40.352 138.172 40.164Q138.115 39.9761 138.077 39.7834Q138.038 39.5908 138.019 39.3953Q138 39.1999 138 39.0035L138 3.99805Q138 3.80164 138.019 3.60617Q138.038 3.4107 138.077 3.21807Q138.115 3.02543 138.172 2.83748Q138.229 2.64952 138.304 2.46806Q138.379 2.2866 138.472 2.11338Q138.565 1.94016 138.674 1.77685Q138.783 1.61354 138.908 1.46171Q139.032 1.30988 139.171 1.171Q139.31 1.03212 139.462 0.907515Q139.614 0.782913 139.777 0.673792Q139.94 0.564672 140.113 0.472084Q140.287 0.379497 140.468 0.304333Q140.65 0.22917 140.837 0.172155Q141.025 0.115139 141.218 0.0768213Q141.411 0.0385034 141.606 0.0192517Q141.802 0 141.998 0L371.002 0Q371.198 0 371.394 0.0192517Q371.589 0.0385034 371.782 0.0768213Q371.975 0.115139 372.162 0.172155Q372.35 0.22917 372.532 0.304333Q372.713 0.379497 372.887 0.472084Q373.06 0.564672 373.223 0.673792Q373.386 0.782913 373.538 0.907515Q373.69 1.03212 373.829 1.171Q373.968 1.30988 374.092 1.46171Q374.217 1.61354 374.326 1.77685Q374.435 1.94016 374.528 2.11338Q374.62 2.2866 374.696 2.46806Q374.771 2.64952 374.828 2.83748Q374.885 3.02543 374.923 3.21807Q374.962 3.4107 374.981 3.60617Q375 3.80164 375 3.99805L375 3.99805Z" id="Rectangle-5" fill="#10527A" fill-rule="evenodd" stroke="none" />
      <path d="M512 21.5L512 21.5015Q512 22.0293 511.974 22.5565Q511.948 23.0836 511.896 23.6089Q511.845 24.1341 511.767 24.6562Q511.69 25.1783 511.587 25.6959Q511.484 26.2136 511.356 26.7256Q511.227 27.2376 511.074 27.7426Q510.921 28.2477 510.743 28.7446Q510.565 29.2416 510.363 29.7292Q510.161 30.2168 509.936 30.6939Q509.71 31.1711 509.461 31.6365Q509.212 32.102 508.941 32.5547Q508.67 33.0074 508.377 33.4463Q508.083 33.8851 507.769 34.309Q507.454 34.733 507.12 35.141Q506.785 35.5489 506.43 35.94Q506.076 36.3311 505.703 36.7043Q505.33 37.0775 504.939 37.432Q504.547 37.7864 504.139 38.1212Q503.731 38.4561 503.307 38.7705Q502.884 39.0849 502.445 39.3781Q502.006 39.6713 501.553 39.9427Q501.1 40.214 500.635 40.4628Q500.169 40.7116 499.692 40.9373Q499.215 41.1629 498.728 41.3649Q498.24 41.5669 497.743 41.7447Q497.246 41.9225 496.741 42.0757Q496.236 42.2289 495.724 42.3572Q495.212 42.4854 494.694 42.5884Q494.177 42.6914 493.655 42.7688Q493.133 42.8462 492.607 42.898Q492.082 42.9497 491.555 42.9756Q491.028 43.0015 490.5 43.0015L441.998 43.0015Q441.802 43.0015 441.606 42.9823Q441.411 42.963 441.218 42.9247Q441.025 42.8864 440.837 42.8293Q440.65 42.7723 440.468 42.6972Q440.287 42.622 440.113 42.5294Q439.94 42.4368 439.777 42.3277Q439.614 42.2186 439.462 42.094Q439.31 41.9694 439.171 41.8305Q439.032 41.6916 438.907 41.5398Q438.783 41.388 438.674 41.2246Q438.565 41.0613 438.472 40.8881Q438.379 40.7149 438.304 40.5334Q438.229 40.352 438.172 40.164Q438.115 39.9761 438.077 39.7834Q438.038 39.5908 438.019 39.3953Q438 39.1999 438 39.0035L438 3.99805Q438 3.80164 438.019 3.60617Q438.038 3.4107 438.077 3.21807Q438.115 3.02543 438.172 2.83748Q438.229 2.64952 438.304 2.46806Q438.379 2.2866 438.472 2.11338Q438.565 1.94016 438.674 1.77685Q438.783 1.61354 438.907 1.46171Q439.032 1.30988 439.171 1.171Q439.31 1.03212 439.462 0.907515Q439.614 0.782913 439.777 0.673792Q439.94 0.564672 440.113 0.472084Q440.287 0.379497 440.468 0.304333Q440.65 0.22917 440.837 0.172155Q441.025 0.115139 441.218 0.0768213Q441.411 0.0385034 441.606 0.0192517Q441.802 0 441.998 0L490.5 0Q491.028 0 491.555 0.0258977Q492.082 0.0517954 492.607 0.103528Q493.133 0.155261 493.655 0.232705Q494.177 0.310149 494.694 0.413116Q495.212 0.516084 495.724 0.644328Q496.236 0.772572 496.741 0.925783Q497.246 1.07899 497.743 1.2568Q498.24 1.43461 498.728 1.63659Q499.215 1.83857 499.692 2.06423Q500.169 2.28989 500.635 2.53869Q501.1 2.78749 501.553 3.05883Q502.006 3.33018 502.445 3.6234Q502.884 3.91663 503.307 4.23104Q503.731 4.54544 504.139 4.88027Q504.547 5.2151 504.939 5.56955Q505.33 5.924 505.703 6.2972Q506.076 6.67041 506.43 7.06148Q506.785 7.45255 507.12 7.86054Q507.455 8.26854 507.769 8.69246Q508.083 9.11639 508.377 9.55524Q508.67 9.99409 508.941 10.4468Q509.212 10.8995 509.461 11.365Q509.71 11.8304 509.936 12.3076Q510.161 12.7847 510.363 13.2723Q510.565 13.7599 510.743 14.2569Q510.921 14.7538 511.074 15.2589Q511.227 15.7639 511.356 16.2759Q511.484 16.7879 511.587 17.3056Q511.69 17.8232 511.767 18.3453Q511.845 18.8674 511.896 19.3926Q511.948 19.9179 511.974 20.445Q512 20.9722 512 21.5Z" id="Rectangle-4" fill="#10527A" fill-rule="evenodd" stroke="none" />
      <path d="M0 21.5015L0 21.5Q0 20.9722 0.0258977 20.445Q0.0517954 19.9179 0.103528 19.3926Q0.155261 18.8674 0.232705 18.3453Q0.310149 17.8232 0.413116 17.3056Q0.516084 16.7879 0.644328 16.2759Q0.772572 15.7639 0.925783 15.2589Q1.07899 14.7538 1.2568 14.2569Q1.43461 13.7599 1.63659 13.2723Q1.83857 12.7847 2.06423 12.3076Q2.28989 11.8304 2.53869 11.365Q2.78749 10.8995 3.05883 10.4468Q3.33018 9.99409 3.6234 9.55524Q3.91663 9.11639 4.23104 8.69246Q4.54544 8.26854 4.88027 7.86054Q5.2151 7.45255 5.56955 7.06148Q5.924 6.67041 6.2972 6.2972Q6.67041 5.924 7.06148 5.56955Q7.45255 5.2151 7.86054 4.88028Q8.26854 4.54544 8.69246 4.23104Q9.11639 3.91663 9.55524 3.6234Q9.99409 3.33018 10.4468 3.05883Q10.8995 2.78749 11.365 2.53869Q11.8304 2.28989 12.3076 2.06423Q12.7847 1.83857 13.2723 1.63659Q13.7599 1.43461 14.2569 1.2568Q14.7538 1.07899 15.2589 0.925783Q15.7639 0.772572 16.2759 0.644328Q16.7879 0.516084 17.3056 0.413116Q17.8232 0.310149 18.3453 0.232705Q18.8674 0.155261 19.3926 0.103528Q19.9179 0.0517954 20.445 0.0258977Q20.9722 0 21.5 0L70.002 0Q70.1984 0 70.3938 0.0192517Q70.5893 0.0385034 70.7819 0.0768213Q70.9746 0.115139 71.1625 0.172155Q71.3505 0.22917 71.5319 0.304333Q71.7134 0.379497 71.8866 0.472084Q72.0598 0.564672 72.2231 0.673792Q72.3865 0.782913 72.5383 0.907515Q72.6901 1.03212 72.829 1.171Q72.9679 1.30988 73.0925 1.46171Q73.2171 1.61354 73.3262 1.77685Q73.4353 1.94016 73.5279 2.11338Q73.6205 2.2866 73.6957 2.46806Q73.7708 2.64952 73.8278 2.83748Q73.8849 3.02543 73.9232 3.21807Q73.9615 3.4107 73.9808 3.60617Q74 3.80164 74 3.99805L74 39.0035Q74 39.1999 73.9808 39.3953Q73.9615 39.5908 73.9232 39.7834Q73.8849 39.9761 73.8278 40.164Q73.7708 40.352 73.6957 40.5334Q73.6205 40.7149 73.5279 40.8881Q73.4353 41.0613 73.3262 41.2246Q73.2171 41.388 73.0925 41.5398Q72.9679 41.6916 72.829 41.8305Q72.6901 41.9694 72.5383 42.094Q72.3865 42.2186 72.2231 42.3277Q72.0598 42.4368 71.8866 42.5294Q71.7134 42.622 71.5319 42.6972Q71.3505 42.7723 71.1625 42.8293Q70.9746 42.8864 70.7819 42.9247Q70.5893 42.963 70.3938 42.9823Q70.1984 43.0015 70.002 43.0015L21.5 43.0015Q20.9722 43.0015 20.445 42.9756Q19.9179 42.9497 19.3926 42.898Q18.8674 42.8462 18.3453 42.7688Q17.8232 42.6914 17.3056 42.5884Q16.7879 42.4854 16.2759 42.3572Q15.7639 42.2289 15.2589 42.0757Q14.7538 41.9225 14.2569 41.7447Q13.7599 41.5669 13.2723 41.3649Q12.7847 41.1629 12.3076 40.9373Q11.8304 40.7116 11.365 40.4628Q10.8995 40.214 10.4468 39.9427Q9.99409 39.6713 9.55524 39.3781Q9.11639 39.0849 8.69246 38.7705Q8.26854 38.4561 7.86054 38.1212Q7.45255 37.7864 7.06148 37.432Q6.67041 37.0775 6.2972 36.7043Q5.924 36.3311 5.56955 35.94Q5.2151 35.5489 4.88028 35.141Q4.54544 34.733 4.23104 34.309Q3.91663 33.8851 3.6234 33.4463Q3.33018 33.0074 3.05883 32.5547Q2.78749 32.102 2.53869 31.6365Q2.28989 31.1711 2.06423 30.6939Q1.83857 30.2168 1.63659 29.7292Q1.43461 29.2416 1.2568 28.7446Q1.07899 28.2477 0.925783 27.7426Q0.772572 27.2376 0.644328 26.7256Q0.516084 26.2136 0.413116 25.6959Q0.310149 25.1783 0.232705 24.6562Q0.155261 24.1341 0.103528 23.6089Q0.0517954 23.0836 0.0258977 22.5565Q0 22.0293 0 21.5015Z" id="Rectangle-6" fill="#10527A" fill-rule="evenodd" stroke="none" />
    </g>
  </g>
</svg>