<?xml version="1.0" encoding="utf-8"?>
<svg width="827px" height="512px" viewBox="0 0 827 512" version="1.1" xmlns:xlink="http://www.w3.org/1999/xlink" xmlns="http://www.w3.org/2000/svg">
  <defs>
    <path d="M827 0L827 0L827 512L0 512L0 0L827 0Z" id="path_1" />
    <clipPath id="clip_1">
      <use xlink:href="#path_1" clip-rule="evenodd" fill-rule="evenodd" />
    </clipPath>
  </defs>
  <g id="station-left-click">
    <path d="M827 0L827 0L827 512L0 512L0 0L827 0Z" id="station-left-click" fill="none" stroke="none" />
    <g id="Group" transform="translate(447 66)" clip-path="url(#clip_1)">
      <path d="M71.9922 190C71.9922 124.826 124.829 71.9922 190.002 71.9922C255.175 71.9922 308.008 124.826 308.008 190C308.008 255.174 255.175 308.008 190.002 308.008C124.829 308.008 71.9922 255.174 71.9922 190L71.9922 190Z" id="Okrąg-3" fill="#A43586" fill-rule="evenodd" stroke="none" />
      <path d="M190 0C85.0658 0 0 85.0658 0 190C0 294.934 85.0658 380 190 380C294.934 380 380 294.934 380 190C380 85.0658 294.934 0 190 0L190 0ZM190.371 36.3672C105.317 36.3672 36.3672 105.317 36.3672 190.371C36.3672 275.425 105.317 344.375 190.371 344.375C275.425 344.375 344.375 275.425 344.375 190.371C344.375 105.317 275.425 36.3672 190.371 36.3672L190.371 36.3672Z" id="Okrąg-Odejmij" fill="#A43586" fill-rule="evenodd" stroke="none" />
    </g>
    <g id="Group" transform="translate(447 66)" clip-path="url(#clip_1)">
      <path d="M71.9922 190C71.9922 124.826 124.829 71.9922 190.002 71.9922C255.175 71.9922 308.008 124.826 308.008 190C308.008 255.174 255.175 308.008 190.002 308.008C124.829 308.008 71.9922 255.174 71.9922 190L71.9922 190Z" id="Okrąg-3" fill="#A43586" fill-rule="evenodd" stroke="none" />
      <path d="M190 0C85.0658 0 0 85.0658 0 190C0 294.934 85.0658 380 190 380C294.934 380 380 294.934 380 190C380 85.0658 294.934 0 190 0L190 0ZM190.371 36.3672C105.317 36.3672 36.3672 105.317 36.3672 190.371C36.3672 275.425 105.317 344.375 190.371 344.375C275.425 344.375 344.375 275.425 344.375 190.371C344.375 105.317 275.425 36.3672 190.371 36.3672L190.371 36.3672Z" id="Okrąg-Odejmij" fill="#A43586" fill-rule="evenodd" stroke="none" />
    </g>
    <g id="computer-mouse-left-click" clip-path="url(#clip_1)">
      <path d="M0 192L176 192L176 0L160 0C71.6002 0 0 71.6 0 160L0 192L0 192L0 192Z" id="Shape-Path" fill="#A43586" stroke="none" />
      <path d="M0 224L0 352C0 440.4 71.6001 512 160.001 512L224.001 512C312.401 512 384 440.4 384 352L384 224L192 224L0 224L0 224L0 224Z" id="Shape-Path#2" fill="#10527A" stroke="none" />
      <path d="M384 192L384 160C384 71.6 312.4 0 223.999 0L208 0L208 192L384 192L384 192L384 192Z" id="Shape-Path#4" fill="#10527A" stroke="none" />
    </g>
    <g id="computer-mouse-left-click" clip-path="url(#clip_1)">
      <path d="M0 192L176 192L176 0L160 0C71.6002 0 0 71.6 0 160L0 192L0 192L0 192Z" id="Shape-Path" fill="#A43586" stroke="none" />
      <path d="M0 224L0 352C0 440.4 71.6001 512 160.001 512L224.001 512C312.401 512 384 440.4 384 352L384 224L192 224L0 224L0 224L0 224Z" id="Shape-Path#2" fill="#10527A" stroke="none" />
      <path d="M384 192L384 160C384 71.6 312.4 0 223.999 0L208 0L208 192L384 192L384 192L384 192Z" id="Shape-Path#4" fill="#10527A" stroke="none" />
    </g>
  </g>
</svg>