<?xml version="1.0" encoding="utf-8"?>
<svg width="827px" height="512px" viewBox="0 0 827 512" version="1.1" xmlns:xlink="http://www.w3.org/1999/xlink" xmlns="http://www.w3.org/2000/svg">
  <defs>
    <path d="M827 0L827 0L827 512L0 512L0 0L827 0Z" id="path_1" />
    <clipPath id="clip_1">
      <use xlink:href="#path_1" clip-rule="evenodd" fill-rule="evenodd" />
    </clipPath>
  </defs>
  <g id="station-left-click">
    <path d="M827 0L827 0L827 512L0 512L0 0L827 0Z" id="station-left-click" fill="none" stroke="none" />
    <path d="M518.992 256C518.992 190.826 571.829 137.992 637.002 137.992C702.175 137.992 755.008 190.826 755.008 256C755.008 321.174 702.175 374.008 637.002 374.008C571.829 374.008 518.992 321.174 518.992 256L518.992 256L518.992 256ZM637 66C532.066 66 447 151.066 447 256C447 360.934 532.066 446 637 446C741.934 446 827 360.934 827 256C827 151.066 741.934 66 637 66L637 66L637 66ZM637.371 102.367C552.317 102.367 483.367 171.317 483.367 256.371C483.367 341.425 552.317 410.375 637.371 410.375C722.425 410.375 791.375 341.425 791.375 256.371C791.375 171.317 722.425 102.367 637.371 102.367L637.371 102.367L637.371 102.367Z" id="Group#1" fill="#A43586" fill-rule="evenodd" stroke="none" clip-path="url(#clip_1)" />
    <path d="M518.992 256C518.992 190.826 571.829 137.992 637.002 137.992C702.175 137.992 755.008 190.826 755.008 256C755.008 321.174 702.175 374.008 637.002 374.008C571.829 374.008 518.992 321.174 518.992 256L518.992 256L518.992 256ZM637 66C532.066 66 447 151.066 447 256C447 360.934 532.066 446 637 446C741.934 446 827 360.934 827 256C827 151.066 741.934 66 637 66L637 66L637 66ZM637.371 102.367C552.317 102.367 483.367 171.317 483.367 256.371C483.367 341.425 552.317 410.375 637.371 410.375C722.425 410.375 791.375 341.425 791.375 256.371C791.375 171.317 722.425 102.367 637.371 102.367L637.371 102.367L637.371 102.367Z" id="Group#1" fill="#A43586" fill-rule="evenodd" stroke="none" clip-path="url(#clip_1)" />
    <path d="M384 192L384 160C384 71.6 312.4 0 223.999 0L208 0L208 192L384 192L384 192L384 192L384 192Z" id="Shape-Path#5" fill="#A43586" stroke="none" clip-path="url(#clip_1)" />
    <path d="M384 192L384 160C384 71.6 312.4 0 223.999 0L208 0L208 192L384 192L384 192L384 192L384 192Z" id="Shape-Path#5" fill="#A43586" stroke="none" clip-path="url(#clip_1)" />
    <path d="M0 224L0 352C0 440.4 71.6001 512 160.001 512L224.001 512C312.401 512 384 440.4 384 352L384 224L192 224L0 224L0 224L0 224L0 224Z" id="Shape-Path#3" fill="#10527A" stroke="none" clip-path="url(#clip_1)" />
    <path d="M0 224L0 352C0 440.4 71.6001 512 160.001 512L224.001 512C312.401 512 384 440.4 384 352L384 224L192 224L0 224L0 224L0 224L0 224Z" id="Shape-Path#3" fill="#10527A" stroke="none" clip-path="url(#clip_1)" />
    <path d="M0 192L176 192L176 0L160 0C71.6002 0 0 71.6 0 160L0 192L0 192L0 192L0 192Z" id="Shape-Path#1" fill="#10527A" stroke="none" clip-path="url(#clip_1)" />
    <path d="M0 192L176 192L176 0L160 0C71.6002 0 0 71.6 0 160L0 192L0 192L0 192L0 192Z" id="Shape-Path#1" fill="#10527A" stroke="none" clip-path="url(#clip_1)" />
  </g>
</svg>