<?xml version="1.0" encoding="utf-8"?>
<svg width="827px" height="512px" viewBox="0 0 827 512" version="1.1" xmlns:xlink="http://www.w3.org/1999/xlink" xmlns="http://www.w3.org/2000/svg">
  <defs>
    <path d="M827 0L827 0L827 512L0 512L0 0L827 0Z" id="path_1" />
    <clipPath id="clip_1">
      <use xlink:href="#path_1" clip-rule="evenodd" fill-rule="evenodd" />
    </clipPath>
  </defs>
  <g id="track-left-click">
    <path d="M827 0L827 0L827 512L0 512L0 0L827 0Z" id="track-left-click" fill="none" stroke="none" />
    <g id="computer-mouse-left-click#1" clip-path="url(#clip_1)">
      <path d="M0 192L176 192L176 0L160 0C71.6002 0 0 71.6 0 160L0 192L0 192L0 192L0 192Z" id="Shape-Path#1" fill="#A43586" stroke="none" />
      <path d="M0 224L0 352C0 440.4 71.6001 512 160.001 512L224.001 512C312.401 512 384 440.4 384 352L384 224L192 224L0 224L0 224L0 224L0 224Z" id="Shape-Path#3" fill="#10527A" stroke="none" />
      <path d="M384 192L384 160C384 71.6 312.4 0 223.999 0L208 0L208 192L384 192L384 192L384 192L384 192Z" id="Shape-Path#5" fill="#10527A" stroke="none" />
    </g>
    <g id="computer-mouse-left-click#1" clip-path="url(#clip_1)">
      <path d="M0 192L176 192L176 0L160 0C71.6002 0 0 71.6 0 160L0 192L0 192L0 192L0 192Z" id="Shape-Path#1" fill="#A43586" stroke="none" />
      <path d="M0 224L0 352C0 440.4 71.6001 512 160.001 512L224.001 512C312.401 512 384 440.4 384 352L384 224L192 224L0 224L0 224L0 224L0 224Z" id="Shape-Path#3" fill="#10527A" stroke="none" />
      <path d="M384 192L384 160C384 71.6 312.4 0 223.999 0L208 0L208 192L384 192L384 192L384 192L384 192Z" id="Shape-Path#5" fill="#10527A" stroke="none" />
    </g>
    <path d="M584.918 57.7852C596.3 64.9992 601.417 83.9746 596.349 100.175L586.925 130.296L688.075 130.296L678.651 100.175C673.583 83.9746 678.7 64.9992 690.082 57.7852C701.465 50.5712 714.797 57.854 719.866 74.0544L737.462 130.296L762.63 130.296C768.441 130.296 773.151 137 773.151 145.271C773.151 153.543 768.441 160.246 762.63 160.246L746.832 160.246L760.218 203.032L780.667 203.032C786.478 203.032 791.188 209.735 791.188 218.007C791.188 226.278 786.478 232.982 780.667 232.982L769.589 232.982L782.975 275.767L801.71 275.767C807.521 275.767 812.231 282.471 812.231 290.742C812.231 299.014 807.521 305.717 801.71 305.717L792.345 305.717L805.732 348.503L813.734 348.503C819.546 348.503 824.256 355.206 824.256 363.478C824.256 371.108 820.248 377.403 815.065 378.334L825.543 411.824C830.612 428.025 825.495 447.001 814.112 454.215C802.73 461.429 789.397 454.145 784.329 437.945L765.715 378.453L509.285 378.453L490.671 437.945C485.603 454.145 472.27 461.429 460.888 454.215C449.505 447.001 444.388 428.025 449.457 411.824L459.898 378.453L459.008 378.453C453.197 378.453 448.487 371.749 448.487 363.478C448.487 355.206 453.197 348.503 459.008 348.503L469.268 348.503L482.655 305.717L471.033 305.717C465.222 305.717 460.511 299.014 460.511 290.742C460.511 282.471 465.222 275.767 471.033 275.767L492.025 275.767L505.411 232.982L492.076 232.982C486.265 232.982 481.554 226.278 481.554 218.007C481.554 209.735 486.265 203.032 492.076 203.032L514.782 203.032L528.168 160.246L510.113 160.246C504.301 160.246 499.591 153.543 499.591 145.271C499.591 137 504.301 130.296 510.113 130.296L537.538 130.296L555.134 74.0544C560.203 57.854 573.535 50.5712 584.918 57.7852ZM756.345 348.503L742.959 305.717L532.041 305.717L518.655 348.503L756.345 348.503ZM733.588 275.767L720.202 232.982L554.798 232.982L541.412 275.767L733.588 275.767ZM710.832 203.032L697.446 160.246L577.554 160.246L564.168 203.032L710.832 203.032Z" id="Group" fill="#A43586" fill-rule="evenodd" stroke="none" clip-path="url(#clip_1)" />
    <path d="M584.918 57.7852C596.3 64.9992 601.417 83.9746 596.349 100.175L586.925 130.296L688.075 130.296L678.651 100.175C673.583 83.9746 678.7 64.9992 690.082 57.7852C701.465 50.5712 714.797 57.854 719.866 74.0544L737.462 130.296L762.63 130.296C768.441 130.296 773.151 137 773.151 145.271C773.151 153.543 768.441 160.246 762.63 160.246L746.832 160.246L760.218 203.032L780.667 203.032C786.478 203.032 791.188 209.735 791.188 218.007C791.188 226.278 786.478 232.982 780.667 232.982L769.589 232.982L782.975 275.767L801.71 275.767C807.521 275.767 812.231 282.471 812.231 290.742C812.231 299.014 807.521 305.717 801.71 305.717L792.345 305.717L805.732 348.503L813.734 348.503C819.546 348.503 824.256 355.206 824.256 363.478C824.256 371.108 820.248 377.403 815.065 378.334L825.543 411.824C830.612 428.025 825.495 447.001 814.112 454.215C802.73 461.429 789.397 454.145 784.329 437.945L765.715 378.453L509.285 378.453L490.671 437.945C485.603 454.145 472.27 461.429 460.888 454.215C449.505 447.001 444.388 428.025 449.457 411.824L459.898 378.453L459.008 378.453C453.197 378.453 448.487 371.749 448.487 363.478C448.487 355.206 453.197 348.503 459.008 348.503L469.268 348.503L482.655 305.717L471.033 305.717C465.222 305.717 460.511 299.014 460.511 290.742C460.511 282.471 465.222 275.767 471.033 275.767L492.025 275.767L505.411 232.982L492.076 232.982C486.265 232.982 481.554 226.278 481.554 218.007C481.554 209.735 486.265 203.032 492.076 203.032L514.782 203.032L528.168 160.246L510.113 160.246C504.301 160.246 499.591 153.543 499.591 145.271C499.591 137 504.301 130.296 510.113 130.296L537.538 130.296L555.134 74.0544C560.203 57.854 573.535 50.5712 584.918 57.7852ZM756.345 348.503L742.959 305.717L532.041 305.717L518.655 348.503L756.345 348.503ZM733.588 275.767L720.202 232.982L554.798 232.982L541.412 275.767L733.588 275.767ZM710.832 203.032L697.446 160.246L577.554 160.246L564.168 203.032L710.832 203.032Z" id="Group" fill="#A43586" fill-rule="evenodd" stroke="none" clip-path="url(#clip_1)" />
  </g>
</svg>